<svg xmlns="http://www.w3.org/2000/svg" xmlns:xlink="http://www.w3.org/1999/xlink" version="1.1" width="22.424711227416992" height="22.39901351928711" viewBox="0 0 22.424711227416992 22.39901351928711"><defs><clipPath id="master_svg0_2442_75705"><rect x="0" y="0" width="22.424711227416992" height="22.39901351928711" rx="0"/></clipPath></defs><g clip-path="url(#master_svg0_2442_75705)"><g><path d="M3.574765625,7.61216203125L2.134765625,7.61216203125L2.134765625,4.12639203125C2.134765625,2.91561103125,3.101830625,1.93408203125,4.294765625,1.93408203125L17.974765625,1.93408203125C19.167665625,1.93408203125,20.134765625,2.91561103125,20.134765625,4.12639203125L20.134765625,18.74178203125C20.134765625,19.95258203125,19.167665625,20.93408203125,17.974765625,20.93408203125L4.294765625,20.93408203125C3.101830625,20.93408203125,2.134765625,19.95258203125,2.134765625,18.74178203125L2.134765625,15.85818203125L3.574765625,15.85818203125L3.574765625,18.74178203125C3.574765625,19.14538203125,3.897115625,19.47258203125,4.294765625,19.47258203125L17.974765625,19.47258203125C18.372365625,19.47258203125,18.694765625,19.14538203125,18.694765625,18.74178203125L18.694765625,4.12639203125C18.694765625,3.72279203125,18.372365625,3.3956220312500003,17.974765625,3.3956220312500003L4.294765625,3.3956220312500003C3.897115625,3.3956220312500003,3.574765625,3.72279203125,3.574765625,4.12639203125L3.574765625,7.61216203125Z" fill-opacity="1"/><path d="M3.674765625,7.71216203125L3.674765625,4.12639203125Q3.674765625,3.86468203125,3.8568856250000003,3.6798420312499998Q4.038385625,3.49562203125,4.294765625,3.49562203125L17.974765625,3.49562203125Q18.231165625,3.49562203125,18.412665625,3.6798420312499998Q18.594765625,3.86468203125,18.594765625,4.12639203125L18.594765625,18.74178203125Q18.594765625,19.00348203125,18.412665625,19.18828203125Q18.231165625,19.37258203125,17.974765625,19.37258203125L4.294765625,19.37258203125Q4.038385625,19.37258203125,3.8568856250000003,19.18828203125Q3.674765625,19.00348203125,3.674765625,18.74178203125L3.674765625,15.75818203125L2.034765625,15.75818203125L2.034765625,18.74178203125Q2.034765725,19.69088203125,2.696181625,20.36218203125Q3.358205625,21.03408203125,4.294765625,21.03408203125L17.974765625,21.03408203125Q18.911365625,21.03408203125,19.573365625,20.36218203125Q20.234765625,19.69088203125,20.234765625,18.74178203125L20.234765625,4.12639203125Q20.234765625,3.17731203125,19.573365625,2.5060100312499998Q18.911365625,1.83408203125,17.974765625,1.83408203125L4.294765625,1.83408203125Q3.358205625,1.83408203125,2.696181625,2.5060100312499998Q2.034765625,3.17732203125,2.034765625,4.12639203125L2.034765625,7.71216203125L3.674765625,7.71216203125ZM3.714415625,3.53947203125Q3.474765625,3.78271203125,3.474765625,4.12639203125L3.474765625,7.51216203125L2.234765625,7.51216203125L2.234765625,4.12639203125Q2.234765625,3.25929203125,2.8386486250000003,2.6463780312500003Q3.441925625,2.03408143125,4.294765625,2.03408183125L17.974765625,2.03408203125Q18.827565625,2.03408203125,19.430865625,2.6463780312500003Q20.034765625,3.2592820312499997,20.034765625,4.12639203125L20.034765625,18.74178203125Q20.034765625,19.60888203125,19.430865625,20.22178203125Q18.827565625,20.83408203125,17.974765625,20.83408203125L4.294765625,20.83408203125Q3.441925625,20.83408203125,2.8386486250000003,20.22178203125Q2.234765625,19.60888203125,2.234765625,18.74178203125L2.234765625,15.95818203125L3.474765625,15.95818203125L3.474765625,18.74178203125Q3.474765625,19.08548203125,3.714415625,19.32868203125Q3.954675625,19.57258203125,4.294765625,19.57258203125L17.974765625,19.57258203125Q18.314865625,19.57258203125,18.555065625,19.32868203125Q18.794765625,19.08548203125,18.794765625,18.74178203125L18.794765625,4.12639203125Q18.794765625,3.78270203125,18.555065625,3.53947203125Q18.314865625,3.2956220312499998,17.974765625,3.2956220312499998L4.294765625,3.2956220312499998Q3.954675625,3.2956220312499998,3.714415625,3.53947203125Z" fill-rule="evenodd" fill-opacity="1"/></g><g><path d="M11.544465625,10.19064203125C11.224865625,9.94970203125,11.170565625,9.50533403125,11.423365625,9.20000603125C11.676265625,8.89467713125,12.139765625,8.84490483125,12.456765625,9.08904803125L15.855965625,11.67984203125C16.400065625,12.09417203125,16.094265625,12.93408203125,15.399765625,12.93408203125L0.868132625,12.93408203125C0.463105625,12.93408203125,0.134765625,12.61914203125,0.134765625,12.23063203125C0.134765625,11.84213203125,0.463105625,11.52719203125,0.868132625,11.52719203125L13.297965625,11.52719203125L11.545265625,10.19064203125L11.544465625,10.19064203125Z" fill-opacity="1"/><path d="M11.511465625,10.29067203125L11.511065625,10.29067203125L11.484265625,10.27050203125Q11.210665625,10.06422203125,11.169965625,9.73160203125Q11.129265625,9.39838403125,11.346365625,9.13622203125Q11.561965625,8.87592003125,11.905365625,8.83904633125Q12.248265625,8.80222803125,12.517765625,9.00982213125L15.916565625,11.60030203125Q16.383165625,11.95558203125,16.186365625,12.49652203125Q15.990765625,13.03408203125,15.399765625,13.03408203125L0.868132625,13.03408203125Q0.524154625,13.03408203125,0.280340625,12.80021203125Q0.034765725,12.56466203125,0.034765725,12.23063203125Q0.034765624999999994,11.896612031250001,0.280340625,11.66105203125Q0.524154625,11.42719203125,0.868132625,11.42719203125L13.001865625,11.42719203125L11.511465625,10.29067203125ZM11.581265625,10.09240203125L13.594065625,11.62719203125L0.868132625,11.62719203125Q0.604568625,11.62719203125,0.418786625,11.80539203125Q0.234765625,11.98190203125,0.234765625,12.23063203125Q0.234765625,12.47936203125,0.418786625,12.65588203125Q0.604569625,12.83408203125,0.868132625,12.83408203125L15.399765625,12.83408203125Q15.850665625,12.83408203125,15.998365625,12.428142031250001Q16.144865625,12.02552203125,15.795365625,11.759372031249999L12.395765625,9.16827303125Q12.189865625,9.00965333125,11.926765625,9.03790303125Q11.664165625,9.06609803125,11.500465625,9.263789031249999Q11.338265625,9.45961603125,11.368565625,9.70733603125Q11.397065625,9.94118203125,11.581265625,10.09240203125Z" fill-rule="evenodd" fill-opacity="1"/></g></g></svg>