<svg xmlns="http://www.w3.org/2000/svg" xmlns:xlink="http://www.w3.org/1999/xlink" version="1.1" width="31" height="31" viewBox="2 2 31 31"><defs><clipPath id="master_svg0_2442_75833"><rect x="0" y="0" width="34.31843948364258" height="34.31843566894531" rx="0"/></clipPath></defs><g clip-path="url(#master_svg0_2442_75833)"><g><path d="M28.618321875,21.7126349609375C28.524421875,21.7126349609375,28.430621875,21.6992349609375,28.336721875,21.6724349609375C27.803921875,21.5182349609375,27.498921875,20.9585349609375,27.653121875,20.4256349609375C27.941321875,19.443734960937498,28.085421875,18.4181349609375,28.085421875,17.385934960937497C28.085421875,11.4103749609375,23.225821875,6.550824960937501,17.250321874999997,6.550824960937501C14.317811875,6.550824960937501,11.573011874999999,7.7037149609375,9.518591875,9.794994960937501C9.129831875,10.1904649609375,8.493061875,10.1971649609375,8.097591874999999,9.8084049609375C7.702131875,9.4196349609375,7.695421875,8.7828649609375,8.084191875,8.3874049609375C9.267241875,7.1842449609375,10.651371874999999,6.2357949609375005,12.196371875,5.5755649609375C13.794991875,4.8885299609375,15.497521875,4.5433349609375,17.253621875,4.5433349609375C18.986321875,4.5433349609375,20.668721875,4.8818269609375005,22.253921875,5.5521049609375C23.782221875,6.1989349609375,25.156221875,7.1239249609375,26.335921875,8.3036149609375C27.515621875,9.4833149609375,28.440621875,10.8573949609375,29.087521875,12.3856349609375C29.757721875,13.9708549609375,30.096221875,15.6532349609375,30.096221875,17.385934960937497C30.096221875,18.612534960937502,29.925321875,19.8224349609375,29.583521875,20.9887349609375C29.452821875,21.4277349609375,29.053921875,21.7126349609375,28.618321875,21.7126349609375ZM17.200021874999997,30.2151349609375C15.467321875,30.2151349609375,13.784941875,29.8766349609375,12.199721875,29.2063349609375C10.671481875,28.5595349609375,9.297401875,27.6345349609375,8.117701875,26.4548349609375C6.938011875,25.2751349609375,6.013021875,23.9010349609375,5.366191875,22.3728349609375C4.6959138750000005,20.7876349609375,4.357421875,19.1052349609375,4.357421875,17.3725349609375C4.357421875,15.9515349609375,4.588668875,14.5506349609375,5.044460875,13.2167849609375C5.225436875,12.6906149609375,5.795171875,12.4124449609375,6.3213518749999995,12.5900649609375C6.847521875,12.7710449609375,7.125681875,13.3407849609375,6.9480618750000005,13.8669549609375C6.562651875,14.9930349609375,6.368271875,16.169334960937498,6.368271875,17.3725349609375C6.368271875,23.3481349609375,11.227811875,28.2076349609375,17.203421875,28.2076349609375C20.135821874999998,28.2076349609375,22.880621875,27.0547349609375,24.935121875,24.9634349609375C25.323821875,24.5680349609375,25.960621875,24.5613349609375,26.356121875,24.9500349609375C26.751521875,25.3388349609375,26.758221875,25.9756349609375,26.369521875,26.3710349609375C25.186421875,27.5742349609375,23.802321875,28.5226349609375,22.257321875,29.1829349609375C20.655321875,29.8666349609375,18.956121875,30.2151349609375,17.200021874999997,30.2151349609375Z" fill-opacity="1"/></g><g><path d="M28.195606875,23.490924140625C27.930845875,23.490924140625,27.666083874999998,23.363574140625,27.505216875,23.128974140625C27.243806875,22.746914140625,27.337645975,22.227444140625,27.719706875,21.962684140625L30.987331875,19.710539140625C31.369391874999998,19.449129140625,31.888861875,19.542968240625,32.153621875,19.925029140625C32.415031875,20.307089140625,32.321191875,20.826554140625,31.939131875,21.091324140625L28.671511875,23.343464140625C28.524041875,23.440654140625,28.359821875,23.490924140625,28.195606875,23.490924140625Z" fill-opacity="1"/></g><g><path d="M28.10986125,23.471247890625C27.84510125,23.471247890625,27.58034125,23.343897890625,27.41947125,23.109297890625L25.16732625,19.841677890625C24.90591625,19.459611890625,24.99975535,18.940143890625,25.38181625,18.675382890625C25.76387725,18.413972890625,26.28334125,18.507811990625,26.54811125,18.889872890625L28.80025125,22.157497890625C29.06166125,22.539557890624998,28.96782125,23.059027890625,28.58576125,23.323787890625C28.43830125,23.424327890625,28.274081250000002,23.471247890625,28.10986125,23.471247890625Z"  fill-opacity="1"/></g><g><path d="M3.090137125,14.984088203125C2.825376125,14.984088203125,2.560615125,14.856738203125,2.399747125,14.622138203125001C2.138337125,14.240078203125,2.232176725,13.720608203125,2.614237125,13.455848203125L5.881863125000001,11.203703203125C6.263923125,10.942293203125,6.783393125,11.036132303125,7.048153125,11.418193203125C7.309563125,11.800253203125,7.215723125,12.319718203125,6.833663125,12.584488203125L3.5660331249999997,14.836628203125C3.418573125,14.937168203125001,3.251005125,14.984088203125,3.090137125,14.984088203125Z" fill-opacity="1"/></g><g><path d="M8.689939375,16.00860140625C8.425179374999999,16.00860140625,8.160419375,15.88125140625,7.999549375,15.646651406250001L5.747403375,12.37903140625C5.485993375,11.99696540625,5.579832775,11.47749740625,5.961893375,11.21273640625C6.343954375,10.95132640625,6.863419375,11.04516550625,7.128179375,11.42722640625L9.380329375,14.69485140625C9.641739375,15.07691140625,9.547899375,15.59638140625,9.165839375000001,15.861141406249999C9.018379375,15.95833140625,8.854159375,16.00860140625,8.689939375,16.00860140625Z" fill-opacity="1"/></g></g></svg>