<svg xmlns="http://www.w3.org/2000/svg" xmlns:xlink="http://www.w3.org/1999/xlink" version="1.1" width="16" height="16" viewBox="0 0 16 16"><defs><clipPath id="master_svg0_2266_45589"><rect x="0" y="0" width="16" height="16" rx="0"/></clipPath></defs><g clip-path="url(#master_svg0_2266_45589)"><g><path d="M7.99999831199646,10.666668872833252C7.84422831199646,10.666968872833252,7.6932683119964596,10.612718872833252,7.57332831199646,10.513338872833252C7.57332831199646,10.513338872833252,3.57333331199646,7.179998872833252,3.57333331199646,7.179998872833252C3.43718831199646,7.066848872833252,3.35157241199646,6.904236872833252,3.33531930199646,6.727952872833252C3.31906621199646,6.551668872833252,3.37350741199646,6.376147872833252,3.48666631199646,6.240003872833252C3.59982531199646,6.103858872833252,3.76243331199646,6.018243072833252,3.93871731199646,6.001989872833252C4.11500131199646,5.985736772833252,4.29052131199646,6.040177672833252,4.42666831199646,6.153336872833252C4.42666831199646,6.153336872833252,7.99999831199646,9.139998872833251,7.99999831199646,9.139998872833251C7.99999831199646,9.139998872833251,11.57332831199646,6.260003872833252,11.57332831199646,6.260003872833252C11.64151831199646,6.204626872833252,11.71998831199646,6.163271872833252,11.80420831199646,6.138317872833252C11.88843831199646,6.113362872833252,11.97676831199646,6.105300872833252,12.06411831199646,6.114592872833252C12.15146831199646,6.123885872833252,12.23612831199646,6.150350872833252,12.31321831199646,6.192466872833252C12.39030831199646,6.234582872833252,12.45831831199646,6.291518872833252,12.51332831199646,6.360003872833252C12.57438831199646,6.428550872833252,12.62062831199646,6.508968872833252,12.64914831199646,6.596217872833252C12.67767831199646,6.683466872833252,12.68787831199646,6.775666872833252,12.67911831199646,6.867042872833252C12.67035831199646,6.958417872833252,12.64281831199646,7.046998872833252,12.59822831199646,7.127238872833252C12.55364831199646,7.207478872833252,12.49296831199646,7.277638872833252,12.41999831199646,7.333338872833252C12.41999831199646,7.333338872833252,8.41999831199646,10.553338872833251,8.41999831199646,10.553338872833251C8.29660831199646,10.637008872833253,8.14872831199646,10.676918872833252,7.99999831199646,10.666668872833252C7.99999831199646,10.666668872833252,7.99999831199646,10.666668872833252,7.99999831199646,10.666668872833252C7.99999831199646,10.666668872833252,7.99999831199646,10.666668872833252,7.99999831199646,10.666668872833252Z" fill-opacity="1"/></g></g></svg>