<svg xmlns="http://www.w3.org/2000/svg" xmlns:xlink="http://www.w3.org/1999/xlink" version="1.1" width="18" height="18" viewBox="0 0 18 18"><g><g transform="matrix(0,-1,1,0,-18,18)"></g><g transform="matrix(0,-1,1,0,-9,21)"><path d="M6.292893,15.292893C5.9324093,15.653377,5.9046797,16.22061,6.209705,16.6129L6.292893,16.70711L11.29289,21.70711C11.65338,22.06759,12.22061,22.09532,12.6129,21.790300000000002L12.70711,21.70711L17.7071,16.70711C18.0976,16.316580000000002,18.0976,15.683417,17.7071,15.292893C17.346600000000002,14.9324093,16.779400000000003,14.9046797,16.3871,15.209705L16.2929,15.292893L12,19.585L7.70711,15.292893C7.34662,14.9324093,6.779392,14.9046797,6.387101,15.209705L6.292893,15.292893Z" fill-rule="evenodd" fill-opacity="1"/><path d="" fill-opacity="1"/></g></g></svg>