<svg xmlns="http://www.w3.org/2000/svg" xmlns:xlink="http://www.w3.org/1999/xlink" fill="none" version="1.1" width="26" height="26" viewBox="0 0 26 26"><g><g></g><g><path d="M24.7071,13.707107L18.3431,20.07107Q18.2735,20.14071,18.1916,20.19543Q18.1097,20.250149999999998,18.0187,20.28784Q17.9277,20.32553,17.8311,20.34474Q17.7345,20.36396,17.636,20.36396Q17.5375,20.36396,17.4409,20.34474Q17.3443,20.32553,17.2534,20.28784Q17.162399999999998,20.250149999999998,17.0805,20.19543Q16.9986,20.14071,16.9289,20.07107Q16.859299999999998,20.00142,16.8046,19.91953Q16.7498,19.83764,16.7122,19.74664Q16.674500000000002,19.65565,16.6552,19.55905Q16.636,19.46245,16.636,19.36396Q16.636,19.26547,16.6552,19.16887Q16.674500000000002,19.07227,16.7122,18.981279999999998Q16.7498,18.89028,16.8046,18.80839Q16.859299999999998,18.7265,16.9289,18.65685L21.5858,14L2,14Q1.9015086,14,1.80491,13.980785000000001Q1.7083110000000001,13.96157,1.617317,13.923879Q1.526322,13.886188,1.44443,13.83147Q1.362537,13.776751,1.2928929999999998,13.707107Q1.223249,13.637463,1.16853,13.55557Q1.113812,13.473678,1.076121,13.382683Q1.03843,13.291689,1.019215,13.19509Q1,13.0984914,1,13Q1,12.9015086,1.019215,12.80491Q1.03843,12.708311,1.076121,12.617317Q1.113812,12.526322,1.16853,12.44443Q1.223249,12.362537,1.2928929999999998,12.292893Q1.362537,12.223249,1.44443,12.16853Q1.526322,12.113812,1.617317,12.076121Q1.7083110000000001,12.03843,1.80491,12.019214999999999Q1.9015086,12,2,12L21.5858,12L16.9289,7.34315Q16.859299999999998,7.2735,16.8046,7.19161Q16.7498,7.10972,16.7122,7.01872Q16.674500000000002,6.92773,16.6552,6.83113Q16.636,6.73453,16.636,6.63604Q16.636,6.53755,16.6552,6.44095Q16.674500000000002,6.34435,16.7122,6.25336Q16.7498,6.16236,16.8046,6.08047Q16.859299999999998,5.99858,16.9289,5.92893Q16.9986,5.85929,17.0805,5.80457Q17.162399999999998,5.74985,17.2534,5.71216Q17.3443,5.67447,17.4409,5.65526Q17.5375,5.63604,17.636,5.63604Q17.7345,5.63604,17.8311,5.65526Q17.9277,5.67447,18.0187,5.71216Q18.1097,5.74985,18.1916,5.80457Q18.2735,5.85929,18.3431,5.92893L24.7071,12.292893L24.7071,12.29291Q24.8478,12.433561,24.9239,12.617327Q25,12.801094,25,13Q25,13.198912,24.9239,13.382683Q24.8478,13.566455,24.7071,13.707107Z" fill-rule="evenodd" fill="#FFFFFF" fill-opacity="1"/></g></g></svg>