<svg xmlns="http://www.w3.org/2000/svg" xmlns:xlink="http://www.w3.org/1999/xlink" fill="none" version="1.1" width="16.000000834337925" height="16.000000834337925" viewBox="0 0 16.000000834337925 16.000000834337925"><defs><clipPath id="master_svg0_2333_37661"><rect x="16" y="16.000000834337925" width="16" height="16" rx="0"/></clipPath></defs><g transform="matrix(-1,-5.2146120310681e-8,5.2146120310681e-8,-1,31.999999165662032,32.000002503013775)" clip-path="url(#master_svg0_2333_37661)"><g><path d="M23.99999831199646,26.666669707171177C23.84422831199646,26.666969707171177,23.69326831199646,26.612719707171177,23.57332831199646,26.513339707171177C23.57332831199646,26.513339707171177,19.57333331199646,23.179999707171177,19.57333331199646,23.179999707171177C19.43718831199646,23.066849707171176,19.35157241199646,22.904237707171177,19.33531930199646,22.727953707171178C19.31906621199646,22.551669707171175,19.37350741199646,22.376148707171176,19.48666631199646,22.240004707171178C19.59982531199646,22.10385970717118,19.76243331199646,22.018243907171176,19.93871731199646,22.001990707171178C20.11500131199646,21.985737607171178,20.29052131199646,22.040178507171177,20.42666831199646,22.153337707171175C20.42666831199646,22.153337707171175,23.99999831199646,25.139999707171178,23.99999831199646,25.139999707171178C23.99999831199646,25.139999707171178,27.573328311996463,22.260004707171177,27.573328311996463,22.260004707171177C27.64151831199646,22.204627707171177,27.71998831199646,22.163272707171178,27.80420831199646,22.138318707171177C27.88843831199646,22.113363707171178,27.97676831199646,22.105301707171176,28.06411831199646,22.114593707171178C28.15146831199646,22.123886707171177,28.23612831199646,22.150351707171176,28.313218311996458,22.192467707171176C28.39030831199646,22.234583707171176,28.458318311996457,22.291519707171176,28.51332831199646,22.36000470717118C28.574388311996458,22.428551707171177,28.620628311996462,22.508969707171175,28.64914831199646,22.596218707171175C28.67767831199646,22.683467707171175,28.68787831199646,22.775667707171177,28.67911831199646,22.867043707171177C28.67035831199646,22.958418707171177,28.64281831199646,23.046999707171178,28.598228311996458,23.127239707171178C28.55364831199646,23.207479707171178,28.49296831199646,23.277639707171176,28.41999831199646,23.333339707171177C28.41999831199646,23.333339707171177,24.41999831199646,26.553339707171176,24.41999831199646,26.553339707171176C24.296608311996458,26.637009707171178,24.14872831199646,26.676919707171177,23.99999831199646,26.666669707171177C23.99999831199646,26.666669707171177,23.99999831199646,26.666669707171177,23.99999831199646,26.666669707171177C23.99999831199646,26.666669707171177,23.99999831199646,26.666669707171177,23.99999831199646,26.666669707171177Z" fill="#FFFFFF" fill-opacity="1"/></g></g></svg>