<svg xmlns="http://www.w3.org/2000/svg" xmlns:xlink="http://www.w3.org/1999/xlink" fill="none" version="1.1" width="16" height="16" viewBox="0 0 16 16"><g><g></g><g><path d="M12.028564453125,5C12.028564453125,7.20914,10.237704453125,9,8.028564453125,9C5.819424453125,9,4.028564453125,7.20914,4.028564453125,5C4.028564453125,2.79086,5.819424453125,1,8.028564453125,1C10.237704453125,1,12.028564453125,2.79086,12.028564453125,5ZM10.928564453125,5Q10.928564453125,3.79878,10.079174453124999,2.94939Q9.229784453125,2.1,8.028564453125,2.1Q6.827344453125,2.1,5.977954453125,2.94939Q5.128564453125,3.79878,5.128564453125,5Q5.128564453125,6.20122,5.977954453125,7.05061Q6.827344453125,7.9,8.028564453125,7.9Q9.229784453125,7.9,10.079174453124999,7.05061Q10.928564453125,6.20122,10.928564453125,5Z" fill-rule="evenodd" fill="#171725" fill-opacity="1"/></g><g><path d="M1.993398771875,13.950231171875Q2.490612171875,12.774681171875,3.3968911718749997,11.868401171875Q5.315341171875,9.949951052666,8.028441171875,9.9499512314796Q10.741541171875,9.949951291084,12.659951171875,11.868401171875Q13.565951171875,12.774351171875,14.063151171875,13.949361171875001L14.063151171875,13.949361171875001C14.092151171875,14.018021171874999,14.106951171875,14.090871171875001,14.106951171875,14.164481171875C14.106951171875,14.468241171875,13.860651171875,14.714481171875,13.556951171875,14.714481171875C13.335951171875,14.714481171875,13.136451171875,14.582241171875001,13.050351171875,14.378731171875L13.050351171875,14.378731171875L13.049551171875,14.376731171875Q12.635951171875,13.400021171875,11.882171171875,12.646221171875Q10.285911171875,11.049951171875,8.028441171875,11.049951171875Q5.770981171875,11.049951171875,4.174711171875,12.646221171875Q3.420141171875,13.400791171875,3.006501171875,14.378731171875C2.920426171875,14.582241171875001,2.720915171875,14.714481171875,2.499951171875,14.714481171875C2.1961941718749998,14.714481171875,1.949951171875,14.468241171875,1.949951171875,14.164481171875C1.949951171875,14.090871171875001,1.964725471875,14.018021171874999,1.993398771875,13.950231171875Z" fill-rule="evenodd" fill="#171725" fill-opacity="1"/></g></g></svg>