<svg xmlns="http://www.w3.org/2000/svg" xmlns:xlink="http://www.w3.org/1999/xlink" fill="none" version="1.1" width="36" height="36" viewBox="0 0 36 36"><defs><filter id="master_svg0_2560_35377/2145_72062" filterUnits="objectBoundingBox" color-interpolation-filters="sRGB" x="0" y="0" width="36" height="20"><feFlood flood-opacity="0" result="BackgroundImageFix"/><feBlend mode="normal" in="SourceGraphic" in2="BackgroundImageFix" result="shape"/><feGaussianBlur in="BackgroundImage" stdDeviation="5"/><feComposite in2="SourceAlpha" operator="in" result="effect1_foregroundBlur"/><feBlend mode="normal" in="SourceGraphic" in2="effect1_foregroundBlur" result="shape"/></filter><linearGradient x1="0.9029296636581421" y1="0.0662434995174408" x2="0.08457031100988388" y2="1" id="master_svg1_2145_73399"><stop offset="5.7142894715070724%" stop-color="#DEDEDF" stop-opacity="0.41999998688697815"/><stop offset="100%" stop-color="#636060" stop-opacity="0.550000011920929"/></linearGradient></defs><g><g></g><g><path d="M9.477424,9.3991Q8.75,11.11892,8.75,13L11.25,13Q11.25,10.20406,13.22703,8.22703Q15.20406,6.25,18,6.25Q20.7959,6.25,22.773,8.22703Q24.75,10.20406,24.75,13L27.25,13Q27.25,11.11892,26.5226,9.3991Q25.8204,7.73889,24.5407,6.4592600000000004Q23.2611,5.179632,21.6009,4.477424Q19.88108,3.75,18,3.75Q16.11892,3.75,14.3991,4.477424Q12.73889,5.179632,11.45926,6.4592600000000004Q10.179632,7.73889,9.477424,9.3991Z" fill-rule="evenodd" fill="#676771" fill-opacity="1"/></g><g style="opacity:0.800000011920929;" filter="url(#master_svg0_2560_35377/2145_72062)"><path d="M0.963546,29.2529C0.475418,31.1512,1.909,33,3.86902,33L32.131,33C34.091,33,35.5246,31.1512,35.0365,29.2529L31.4365,15.252880000000001C31.0955,13.926912,29.9001,13,28.531,13L8.24441,13C6.41895,13,4.82506,14.23588,4.37044,16.00384L0.963546,29.2529Z" fill="url(#master_svg1_2145_73399)" fill-opacity="1"/></g><g><rect x="11" y="25" width="14" height="3" rx="1.5" fill="#676771" fill-opacity="0.46000000834465027"/></g></g></svg>