<svg xmlns="http://www.w3.org/2000/svg" xmlns:xlink="http://www.w3.org/1999/xlink" fill="none" version="1.1" width="28" height="28" viewBox="0 0 28 28"><defs><clipPath id="master_svg0_2252_25550"><rect x="0" y="0" width="28" height="28" rx="0"/></clipPath><filter id="master_svg1_2252_25556" filterUnits="objectBoundingBox" color-interpolation-filters="sRGB" x="0" y="0" width="19.83333396911621" height="15.166666984558105"><feFlood flood-opacity="0" result="BackgroundImageFix"/><feBlend mode="normal" in="SourceGraphic" in2="BackgroundImageFix" result="shape"/><feGaussianBlur in="BackgroundImage" stdDeviation="5"/><feComposite in2="SourceAlpha" operator="in" result="effect1_foregroundBlur"/><feBlend mode="normal" in="SourceGraphic" in2="effect1_foregroundBlur" result="shape"/></filter><linearGradient x1="0.8505859375" y1="0.2238750457763672" x2="0.08457031100988388" y2="1" id="master_svg2_2125_29046"><stop offset="5.714286118745804%" stop-color="#FFFFFF" stop-opacity="1"/><stop offset="41.50588810443878%" stop-color="#FFFFFF" stop-opacity="0.5100903511047363"/><stop offset="97.14285135269165%" stop-color="#636060" stop-opacity="0.33000001311302185"/></linearGradient></defs><g clip-path="url(#master_svg0_2252_25550)"><g><path d="M17.5,9.826924140625L17.5,15.500044140625C17.5,16.604544140625002,16.604599999999998,17.500044140625,15.5,17.500044140625L3.5,17.500044140625L3.5,9.927264140624999C3.5,8.606014140625,4.32775,7.4300141406249995,5.586,6.963924140625L14.5868,3.634260140625C15.9927,3.123843140625,17.5,4.133593140625,17.5,5.609424140625L17.5,9.826924140625Z" fill="#696972" fill-opacity="1"/></g><g style="opacity:0.800000011920929;" filter="url(#master_svg1_2252_25556)"><path d="M5.83333,9.333251953125L21,9.333251953125C22.2887,9.333251953125,23.3333,10.377921953125,23.3333,11.666581953125L23.3333,22.166551953125C23.3333,23.455251953125,22.2887,24.499951953125,21,24.499951953125L5.83333,24.499951953125C4.54467,24.499951953125,3.500000267029,23.455251953125,3.5,22.166551953125L3.5,11.666581953125C3.5,10.377921953125,4.54467,9.333253021245,5.83333,9.333251953125Z" fill="url(#master_svg2_2125_29046)" fill-opacity="1"/></g><g><path d="M24.5,17.942671953125C24.5,18.506171953125,24.0497,18.967001953125,23.4762,18.987421953125L21.4702,18.987421953125C20.364800000000002,18.987421953125,19.3515,18.178331953125,19.2593,17.071751953125002C19.200699999999998,16.450941953125,19.4265,15.837001953125,19.8736,15.402251953124999C20.2609,15.005411953125,20.7932,14.783421953125,21.3477,14.787421953125L23.4768,14.787421953125C24.0439,14.802521953125,24.4967,15.264881953125,24.5,15.832171953125L24.5,17.942671953125ZM7.823667,14.583251953125C7.373334,14.583251953125,7,14.186581953125,7,13.708251953125C7,13.229917953125,7.373334,12.833251953125,7.823666,12.833251953125L15.50967,12.833251953125C15.96,12.833251953125,16.33333,13.229918953125,16.33333,13.708251953125C16.33333,14.186581953125,15.96,14.583251953125,15.50967,14.583251953125L7.823667,14.583251953125Z" fill="#696972" fill-opacity="1"/></g></g></svg>