<svg xmlns="http://www.w3.org/2000/svg" xmlns:xlink="http://www.w3.org/1999/xlink" version="1.1" width="22.424711227416992" height="22.39901351928711" viewBox="0 0 22.424711227416992 22.39901351928711"><defs><clipPath id="master_svg0_2442_75669"><rect x="0" y="0" width="22.424711227416992" height="22.39901351928711" rx="0"/></clipPath></defs><g clip-path="url(#master_svg0_2442_75669)"><g><path d="M20.118259375,3.584228515625L2.893459375,3.584228515625C1.852630375,3.584228515625,1.005859375,4.415784515625,1.005859375,5.437898515625L1.005859375,17.216728515625C1.005859375,18.238828515625002,1.852630375,19.070428515625,2.893459375,19.070428515625L3.573219375,19.070428515625C3.642239375,19.073828515625,3.713199375,19.075628515625,3.786299375,19.075628515625C3.864329375,19.075628515625,3.930389375,19.073528515625,3.979069375,19.071328515624998C4.013249375,19.072328515625,4.0473993749999995,19.073028515624998,4.0811093750000005,19.073028515624998C4.137589375,19.073028515624998,4.181449375,19.071628515625,4.207509375,19.070428515625L11.745359375,19.082128515625C11.768359375,19.083128515625,11.807359375,19.084228515625,11.857759375,19.084228515625C11.918259375,19.084228515625,12.004759375,19.082428515625,12.104859375,19.075528515625003L12.203759375,19.075628515625C12.211359375,19.075728515625002,12.223759375,19.075928515625,12.240259375,19.075928515625C12.285059375,19.075928515625,12.354059375,19.074828515625,12.438459375,19.070428515625L20.118259375,19.070428515625C21.159059375,19.070428515625,22.005859375,18.238828515625002,22.005859375,17.216728515625L22.005859375,5.437918515625C22.005859375,4.415765515625,21.159059375,3.584228515625,20.118259375,3.584228515625ZM12.405459375,17.779628515625L12.106959375,17.779628515625L12.074159375,17.782828515625C12.067459375,17.783528515625,12.060959375,17.784128515625,12.054359375,17.784628515625002L4.013639375,17.777528515625L3.988209375,17.777328515625L3.961379375,17.779528515625C3.961339375,17.779528515625,3.960949375,17.779528515625,3.960289375,17.779528515625L3.610579375,17.779528515625C3.490239375,17.772128515625,3.399109375,17.757728515625,3.334919375,17.743028515625C3.382899375,17.079328515625,3.691409375,16.153428515625002,4.439789375,15.351728515625C5.051139375,14.696928515625,6.168519375,13.916328515625,8.020069375,13.916328515625C9.875489375,13.916328515625,11.003709375,14.698428515625,11.623459375,15.354528515625C12.378759375,16.154128515625,12.693159375,17.071028515625002,12.745159375,17.730528515625C12.661059375,17.751528515624997,12.542559375,17.770628515625,12.405459375,17.779628515625ZM20.691359375,17.216728515625C20.691359375,17.527128515625,20.434259375,17.779628515625,20.118259375,17.779628515625L14.064359375,17.779628515625C14.044159375,17.267728515625002,13.918959375,16.720628515625002,13.698359375,16.187428515625C13.441259375,15.565628515625,13.057059375,14.974128515625,12.587259375,14.476728515625C11.789559375,13.632228515625,10.349669375,12.625558515625,8.020089375000001,12.625558515625C5.690619375,12.625558515625,4.260419375,13.633728515625,3.470829375,14.479528515625C2.963419375,15.023028515625,2.5699393749999997,15.662728515625,2.320399375,16.326428515625L2.320399375,5.437918515625C2.320399375,5.127558515625,2.5774793750000002,4.875078515625,2.893459375,4.875078515625L20.118259375,4.875078515625C20.434259375,4.875078515625,20.691359375,5.127578515625,20.691359375,5.437918515625L20.691359375,17.216728515625ZM8.060989375,6.175788515624999C6.342819375,6.175788515624999,4.9449693749999994,7.548368515625,4.9449693749999994,9.235458515625C4.9449693749999994,10.922778515625,6.342799375,12.295518515625,8.060989375,12.295518515625C9.779239375,12.295518515625,11.177159375,10.922778515625,11.177159375,9.235458515625C11.177159375,7.548368515625,9.779219375,6.175788515624999,8.060989375,6.175788515624999ZM8.060989375,11.004688515625C7.067669375,11.004688515625,6.259509375,10.211008515625,6.259509375,9.235458515625C6.259509375,8.260118515624999,7.067649375,7.466618515625,8.060989375,7.466618515625C9.054389375,7.466618515625,9.862589375,8.260118515624999,9.862589375,9.235458515625C9.862569375,10.211008515625,9.054389375,11.004688515625,8.060989375,11.004688515625ZM13.485459375,6.154798515625L18.726259375,6.154798515625C19.082659375,6.154798515625,19.371659375,6.4437585156249995,19.371659375,6.800208515625C19.371659375,7.156658515625001,19.082659375,7.445628515625,18.726259375,7.445628515625L13.485459375,7.445628515625C13.128959375,7.445628515625,12.840059375,7.156658515625001,12.840059375,6.800208515625C12.840059375,6.4437585156249995,13.128959375,6.154798515625,13.485459375,6.154798515625M13.485459375,8.736458515625L18.726259375,8.736458515625C19.082659375,8.736458515625,19.371659375,9.025418515624999,19.371659375,9.381868515625001C19.371659375,9.738318515625,19.082659375,10.027288515625,18.726259375,10.027288515625L13.485459375,10.027288515625C13.128959375,10.027288515625,12.840059375,9.738318515625,12.840059375,9.381868515625001C12.840059375,9.025418515624999,13.128959375,8.736458515625,13.485459375,8.736458515625M13.485459375,11.318118515624999L16.158759375000002,11.318118515624999C16.515259375,11.318118515624999,16.804159374999998,11.607078515625,16.804159374999998,11.963528515625C16.804159374999998,12.319978515625,16.515259375,12.608938515625,16.158759375000002,12.608938515625L13.485459375,12.608938515625C13.128959375,12.608938515625,12.840059375,12.319978515625,12.840059375,11.963528515625C12.840059375,11.607078515625,13.128959375,11.318118515624999,13.485459375,11.318118515624999" fill-opacity="1"/></g></g></svg>