<svg xmlns="http://www.w3.org/2000/svg" xmlns:xlink="http://www.w3.org/1999/xlink" version="1.1" width="24" height="24" viewBox="0 0 24 24"><g><g></g><g><path d="M17.69401096725464,6.305664C18.10201096725464,6.71369,18.10201096725464,7.3756699999999995,17.69401096725464,7.78369L13.47832096725464,11.999130000000001L17.693910967254638,16.2162C18.10201096725464,16.624200000000002,18.10201096725464,17.2857,17.693910967254638,17.6937C17.285910967254637,18.1017,16.62441096725464,18.1017,16.21631096725464,17.6937L12.00073096725464,13.47672L7.783580967254639,17.6938C7.375550967254639,18.1019,6.714005967254638,18.1019,6.305979967254639,17.6938C5.897953967254638,17.285800000000002,5.897953967254638,16.624299999999998,6.305979967254639,16.2163L10.523130967254637,11.999130000000001L6.306029967254639,7.78356C5.898004967254638,7.3755299999999995,5.898004967254638,6.7140450000000005,6.306029967254639,6.306019C6.714055967254639,5.897994,7.3756009672546385,5.897994,7.783630967254639,6.306019L12.00073096725464,10.52154L16.21641096725464,6.305664C16.62441096725464,5.897638,17.285910967254637,5.897638,17.69401096725464,6.305664Z" fill-rule="evenodd" fill-opacity="1"/></g></g></svg>