<svg xmlns="http://www.w3.org/2000/svg" xmlns:xlink="http://www.w3.org/1999/xlink" version="1.1" width="35" height="35" viewBox="0 0 35 35"><g><g><path d="M14.2442,0.00000167679L14.1734,0.00000167679C11.5641,0.00000167679,9.50916,0.00000167679,7.87424,0.172163C6.20269,0.347987,4.82906,0.715508,3.64469,1.54579C2.82773,2.11734,2.11734,2.82773,1.54579,3.64469C0.715507,4.83028,0.349206,6.20269,0.172161,7.87424C0,9.50916,0,11.5641,0,14.1734L0,14.315C0,16.9243,0,18.9792,0.172161,20.6142C0.347985,22.2857,0.715507,23.6593,1.54579,24.8437C2.11734,25.6607,2.82773,26.3711,3.64469,26.9426C4.83028,27.7729,6.20269,28.1404,7.87424,28.3162C9.41758,28.4786,11.3346,28.4884,13.7387,28.4884C14.0134,29.884,13.7106,31.3797,12.9695,32.3626L12.8217,32.558L9.3602,32.558C8.68585,32.558,8.13919,33.1047,8.13919,33.779C8.13919,34.4533,8.68585,35,9.3602,35L25.6398,35C26.3141,35,26.8608,34.4533,26.8608,33.779C26.8608,33.1047,26.3141,32.558,25.6398,32.558L22.1783,32.558L22.0305,32.3626C21.2894,31.3797,20.9866,29.8828,21.2613,28.4884C23.6654,28.4884,25.5824,28.4786,27.1258,28.3162C28.7973,28.1404,30.1709,27.7729,31.3553,26.9426C32.1723,26.3711,32.8827,25.6607,33.4542,24.8437C34.2845,23.6581,34.652,22.2857,34.8278,20.6142C35,18.9792,35,16.9243,35,14.315L35,14.1734C35,11.5641,35,9.50916,34.8278,7.87424C34.652,6.20269,34.2845,4.82906,33.4542,3.64469C32.8827,2.82773,32.1723,2.11734,31.3553,1.54579C30.1697,0.715507,28.7973,0.349206,27.1258,0.172161C25.4908,0,23.4359,0,20.8266,0L14.2442,0.00000167679ZM20.3724,26.0476L14.2454,26.0476C11.5494,26.0476,9.62271,26.0464,8.13065,25.8889C6.66056,25.7338,5.75214,25.4383,5.04518,24.9438C4.46189,24.5352,3.95447,24.0277,3.54579,23.4444C3.05128,22.7375,2.7558,21.8303,2.60073,20.359C2.44322,18.8669,2.442,16.9402,2.442,14.2442C2.442,11.5482,2.44322,9.62149,2.60073,8.12943C2.7558,6.65934,3.05128,5.75092,3.54579,5.04396C3.95482,4.46032,4.46154,3.9536,5.04518,3.54457C5.75214,3.05006,6.65934,2.75458,8.13065,2.59951C9.62271,2.442,11.5495,2.44078,14.2454,2.44078L20.757,2.44078C23.453,2.44078,25.3785,2.442,26.8718,2.59951C28.3419,2.75458,29.2503,3.05006,29.9573,3.54457C30.5409,3.9536,31.0476,4.46032,31.4567,5.04396C31.9512,5.75092,32.2466,6.65812,32.4017,8.12943C32.5592,9.62149,32.5604,11.5482,32.5604,14.2442C32.5604,16.9402,32.5592,18.8657,32.4017,20.359C32.2466,21.8291,31.9512,22.7375,31.4567,23.4444C31.0476,24.0281,30.5409,24.5348,29.9573,24.9438C29.2503,25.4383,28.3431,25.7338,26.8718,25.8889C25.3797,26.0464,23.453,26.0476,20.757,26.0476L20.3736,26.0476L20.3724,26.0476ZM16.2112,28.4896L18.7912,28.4896C18.6081,29.873,18.7949,31.3126,19.3419,32.5592L15.6618,32.5592C16.2088,31.3126,16.3956,29.873,16.2125,28.4896L16.2112,28.4896Z" fill-opacity="1"/></g><g><path d="M28.0883796875,16.38779764526367C28.9871796875,16.38779764526367,29.7157796875,15.637687645263671,29.7157796875,14.712387645263671C29.7157796875,13.787087645263671,28.9871796875,13.036977645263672,28.0883796875,13.036977645263672L28.0736796875,13.036977645263672C27.1748796875,13.036977645263672,26.4461796875,13.787087645263671,26.4461796875,14.712387645263671C26.4461796875,15.637687645263671,27.1748796875,16.38779764526367,28.0736796875,16.38779764526367L28.0883796875,16.38779764526367ZM8.5537796875,14.711127645263673C8.5537796875,15.636187645263671,7.8248896875,16.386537645263672,6.9262996875,16.386537645263672L6.9116496875,16.386537645263672C6.0128246875,16.386537645263672,5.2841796875,15.636437645263673,5.2841796875,14.711137645263673C5.2841796875,13.785827645263673,6.0128236875,13.035727645263671,6.9116496875,13.035727645263671L6.9262996875,13.035727645263671C7.8248896875,13.035727645263671,8.5537796875,13.78607764526367,8.5537796875,14.711127645263673ZM14.7413496875,14.711127645263673C14.7402696875,13.090887645263672,16.0158796875,11.776827645263673,17.5897796875,11.776827645263673C19.1635796875,11.776827645263673,20.4391796875,13.090887645263672,20.4380796875,14.711127645263673C20.437079687500002,16.32979764526367,19.1620796875,17.641377645263674,17.5897796875,17.641377645263674C16.0173796875,17.641377645263674,14.7424396875,16.32978764526367,14.7413496875,14.711127645263673ZM17.5897796875,9.265117645263672C14.6680396875,9.265117645263672,12.2995296875,11.703377645263672,12.2995296875,14.711137645263673C12.2995296875,17.71888764526367,14.6680396875,20.15711764526367,17.5897796875,20.15711764526367C20.5114796875,20.15711764526367,22.8799796875,17.71888764526367,22.8799796875,14.711137645263673C22.8799796875,11.703377645263672,20.5114796875,9.265117645263672,17.5897796875,9.265117645263672Z" fill-opacity="1"/></g></g></svg>