<svg xmlns="http://www.w3.org/2000/svg" xmlns:xlink="http://www.w3.org/1999/xlink" fill="none" version="1.1" width="36" height="36" viewBox="0 0 36 36"><defs><filter id="master_svg0_2560_35379/2125_65818" filterUnits="objectBoundingBox" color-interpolation-filters="sRGB" x="0" y="0" width="22" height="32"><feFlood flood-opacity="0" result="BackgroundImageFix"/><feBlend mode="normal" in="SourceGraphic" in2="BackgroundImageFix" result="shape"/><feGaussianBlur in="BackgroundImage" stdDeviation="5"/><feComposite in2="SourceAlpha" operator="in" result="effect1_foregroundBlur"/><feBlend mode="normal" in="SourceGraphic" in2="effect1_foregroundBlur" result="shape"/></filter><linearGradient x1="0.8505859375" y1="0.2238750457763672" x2="0.08457031100988388" y2="1" id="master_svg1_2125_29046"><stop offset="5.714286118745804%" stop-color="#FFFFFF" stop-opacity="1"/><stop offset="41.50588810443878%" stop-color="#FFFFFF" stop-opacity="0.5100903511047363"/><stop offset="97.14285135269165%" stop-color="#636060" stop-opacity="0.33000001311302185"/></linearGradient></defs><g><g></g><g><path d="M2,23C2,25.2091,3.79086,27,6,27L30,27C32.2091,27,34,25.2091,34,23L34,12C34,10.34315,32.6569,9,31,9L6,9C3.79086,9,2,10.79086,2,13L2,23Z" fill="#44444F" fill-opacity="0.800000011920929"/></g><g style="opacity:0.800000011920929;" filter="url(#master_svg0_2560_35379/2125_65818)"><path d="M7,6L7,31C7,32.6569,8.34315,34,10,34L26,34C27.6569,34,29,32.6569,29,31L29,5C29,3.34315,27.6569,2,26,2L11,2C8.79086,2,7,3.79086,7,6Z" fill="url(#master_svg1_2125_29046)" fill-opacity="1"/></g></g></svg>