<svg xmlns="http://www.w3.org/2000/svg" xmlns:xlink="http://www.w3.org/1999/xlink" fill="none" version="1.1" width="36" height="36" viewBox="0 0 36 36"><defs><linearGradient x1="0.8985351324081421" y1="0.12321887165307999" x2="0.08457031100988388" y2="1" id="master_svg0_2125_29470"><stop offset="5.714278295636177%" stop-color="#FFFFFF" stop-opacity="1"/><stop offset="97.14287519454956%" stop-color="#FFFFFF" stop-opacity="0.33000001311302185"/></linearGradient></defs><g><g></g><g><path d="M7,6L7,31C7,32.6569,8.34315,34,10,34L26,34C27.6569,34,29,32.6569,29,31L29,5C29,3.34315,27.6569,2,26,2L11,2C8.79086,2,7,3.79086,7,6Z" fill="url(#master_svg0_2125_29470)" fill-opacity="1"/></g><g><path d="M2,23C2,25.2091,3.79086,27,6,27L30,27C32.2091,27,34,25.2091,34,23L34,12C34,10.34315,32.6569,9,31,9L6,9C3.79086,9,2,10.79086,2,13L2,23Z" fill="#FFFFFF" fill-opacity="0.800000011920929"/></g></g></svg>