<svg xmlns="http://www.w3.org/2000/svg" xmlns:xlink="http://www.w3.org/1999/xlink" fill="none" version="1.1" width="1.8498730659484863" height="31.849873065948486" viewBox="0 0 1.8498730659484863 31.849873065948486"><g transform="matrix(0,1,-1,0,1.8498730659484863,0)"><path d="M0.9357731329742431,1.849873532974243L0.9249365329742432,1.8499365329742432Q0.8338320329742431,1.8499365329742432,0.7444775329742431,1.8321625329742433Q0.6551235329742431,1.8143895329742432,0.5709545329742431,1.7795255329742432Q0.4867845329742432,1.744660532974243,0.4110345329742432,1.6940455329742432Q0.3352835329742432,1.6434305329742431,0.2708625329742431,1.5790105329742432Q0.2064425329742432,1.5145895329742431,0.15582753297424312,1.438838532974243Q0.10521253297424316,1.3630885329742433,0.07034753297424312,1.2789185329742432Q0.035483532974243115,1.1947495329742432,0.017710532974243187,1.105395532974243Q-0.00006346702575688035,1.016041032974243,-0.00006346702575688035,0.9249365329742432Q-0.00006346702575688035,0.8338320329742431,0.017710532974243187,0.7444775329742431Q0.035483532974243115,0.6551235329742431,0.07034753297424312,0.5709545329742431Q0.10521253297424316,0.4867845329742432,0.15582753297424312,0.4110345329742432Q0.2064425329742432,0.3352835329742432,0.2708625329742431,0.2708625329742431Q0.3352835329742432,0.2064425329742432,0.4110345329742432,0.15582753297424312Q0.4867845329742432,0.10521253297424316,0.5709545329742431,0.07034753297424312Q0.6551235329742431,0.035483532974243115,0.7444775329742431,0.017710532974243187Q0.8338320329742431,-0.00006346702575688035,0.9249365329742432,-0.00006346702575688035L0.9357731329742431,-4.670257568450964e-7L30.914136532974243,-4.670257568450964e-7L30.924936532974243,-0.00006346702575688035Q31.016036532974244,-0.00006346702575688035,31.10543653297424,0.017710532974243187Q31.194736532974243,0.035483532974243115,31.278936532974242,0.07034753297424312Q31.36303653297424,0.10521253297424316,31.438836532974243,0.15582753297424312Q31.514536532974244,0.2064425329742432,31.579036532974243,0.2708625329742431Q31.643436532974242,0.3352835329742432,31.694036532974245,0.4110345329742432Q31.744636532974244,0.4867845329742432,31.779536532974245,0.5709545329742431Q31.81433653297424,0.6551235329742431,31.832136532974243,0.7444775329742431Q31.849936532974244,0.8338320329742431,31.849936532974244,0.9249365329742432Q31.849936532974244,1.016041032974243,31.832136532974243,1.105395532974243Q31.81433653297424,1.1947495329742432,31.779536532974245,1.2789185329742432Q31.744636532974244,1.3630885329742433,31.694036532974245,1.438838532974243Q31.643436532974242,1.5145895329742431,31.579036532974243,1.5790105329742432Q31.514536532974244,1.6434305329742431,31.438836532974243,1.6940455329742432Q31.36303653297424,1.744660532974243,31.278936532974242,1.7795255329742432Q31.194736532974243,1.8143895329742432,31.10543653297424,1.8321625329742433Q31.016036532974244,1.8499365329742432,30.924936532974243,1.8499365329742432L30.914136532974243,1.849873532974243L0.9357731329742431,1.849873532974243Z" fill-rule="evenodd" fill="#CACFE1" fill-opacity="1"/></g></svg>