<svg xmlns="http://www.w3.org/2000/svg" xmlns:xlink="http://www.w3.org/1999/xlink" version="1.1" width="27" height="34" viewBox="0 0 27 34"><g><g><path d="M0,14.6288C0,17.2952,0.0000185038,24.2823,0.171005,25.953C0.345628,27.6612,0.710639,29.065,1.53525,30.2753C2.1029,31.1101,2.80838,31.8358,3.61975,32.4198C4.79725,33.2683,6.16036,33.6439,7.8205,33.8236C9.3533,33.9895,11.257,34,12.6747,34L14.3252,34C16.7129,34,17.6467,33.9895,19.1795,33.8236C20.8396,33.6439,22.2038,33.2683,23.3801,32.4198C24.1915,31.8358,24.8971,31.1101,25.4648,30.2753C26.2894,29.0637,26.6544,27.6612,26.829,25.953C27,24.2823,27,17.2952,27,14.6288L27,14.4836C27,11.8171,27,9.71769,26.829,8.04696C26.6544,6.3388,26.2894,4.93501,25.4648,3.72471C24.8971,2.88986,24.1915,2.16324,23.3801,1.57917C22.2026,0.730709,20.8396,0.356386,19.1795,0.175464C17.56,0,16.4906,0,13.9141,0L13.0935,0C11.4743,0,9.43993,0,7.8205,0.175464C6.16036,0.355139,4.79604,0.730709,3.61975,1.57917C2.80838,2.16324,2.1029,2.88986,1.53525,3.72471C0.710639,4.93626,0.34684,6.3388,0.171005,8.04696C0.0000185038,9.71769,0,11.8171,0,14.4836L0,14.6288ZM2.5,14.6288Q2.5,24.1545,2.65801,25.6985Q2.87267,27.7982,3.6013,28.8677Q4.212,29.7658,5.0803,30.3909Q6.09532,31.1222,8.0895,31.3381Q9.5851,31.5,12.6747,31.5L14.3252,31.5Q17.4149,31.5,18.9104,31.3381Q20.9058,31.1221,21.9176,30.3923Q22.7881,29.7657,23.3974,28.8696Q24.1275,27.7969,24.342,25.6988Q24.5,24.1546,24.5,14.6288L24.5,14.4836Q24.5,9.84545,24.342,8.30149Q24.1273,6.20179,23.3987,5.13235Q22.7868,4.23245,21.9196,3.60815Q20.907,2.87853,18.9087,2.66075Q17.425,2.5,13.9141,2.5L13.0935,2.5Q9.57497,2.5,8.08979,2.66092Q6.09409,2.87691,5.08226,3.60675Q4.21329,4.23228,3.60262,5.1304Q2.87429,6.2005,2.65786,8.30296Q2.5,9.84546,2.5,14.4836L2.5,14.6288Z" fill-rule="evenodd" fill-opacity="1"/></g><g><rect x="10" y="4" width="7" height="2.5" rx="1.25" fill-opacity="1"/></g><g><path d="M14.75,28.25Q14.75,28.31141,14.74398,28.37252Q14.737960000000001,28.43363,14.72598,28.49386Q14.714,28.55409,14.69618,28.61286Q14.67835,28.67162,14.65485,28.72835Q14.63135,28.78509,14.6024,28.83925Q14.57345,28.8934,14.53934,28.94446Q14.50522,28.99552,14.46626,29.04299Q14.42731,29.09046,14.38388,29.13388Q14.34046,29.17731,14.29299,29.21626Q14.245519999999999,29.25522,14.19446,29.28934Q14.1434,29.32345,14.08925,29.3524Q14.03509,29.38135,13.97835,29.40485Q13.92162,29.428350000000002,13.86286,29.44618Q13.80409,29.464,13.74386,29.47598Q13.68363,29.48796,13.62252,29.49398Q13.56141,29.5,13.5,29.5Q13.43859,29.5,13.37748,29.49398Q13.31637,29.48796,13.25614,29.47598Q13.195908,29.464,13.137144,29.44618Q13.07838,29.428350000000002,13.021646,29.40485Q12.964912,29.38135,12.910754,29.3524Q12.856597,29.32345,12.805537,29.28934Q12.754478,29.25522,12.707008,29.21626Q12.659539,29.17731,12.616116,29.13388Q12.572694,29.09046,12.533737,29.04299Q12.49478,28.99552,12.460663,28.94446Q12.426546,28.8934,12.397598,28.83925Q12.368651,28.78509,12.3451506,28.72835Q12.3216505,28.67162,12.3038246,28.61286Q12.2859986,28.55409,12.2740184,28.49386Q12.2620382,28.43363,12.25601909,28.37252Q12.25,28.31141,12.25,28.25Q12.25,28.18859,12.25601909,28.12748Q12.2620382,28.06637,12.2740184,28.00614Q12.2859986,27.945908,12.3038246,27.887144Q12.3216505,27.82838,12.3451506,27.771646Q12.368651,27.714911999999998,12.397598,27.660754Q12.426546,27.606597,12.460663,27.555537Q12.49478,27.504478,12.533737,27.457008Q12.572694,27.409539,12.616116,27.366116Q12.659539,27.322694,12.707008,27.283737Q12.754478,27.24478,12.805537,27.210663Q12.856597,27.176546,12.910754,27.147598Q12.964912,27.118651,13.021646,27.0951506Q13.07838,27.0716505,13.137144,27.0538246Q13.195908,27.0359986,13.25614,27.0240184Q13.31637,27.0120382,13.37748,27.00601909Q13.43859,27,13.5,27Q13.56141,27,13.62252,27.00601909Q13.68363,27.0120382,13.74386,27.0240184Q13.80409,27.0359986,13.86286,27.0538246Q13.92162,27.0716505,13.97835,27.0951506Q14.03509,27.118651,14.08925,27.147598Q14.1434,27.176546,14.19446,27.210663Q14.245519999999999,27.24478,14.29299,27.283737Q14.34046,27.322694,14.38388,27.366116Q14.42731,27.409539,14.46626,27.457008Q14.50522,27.504478,14.53934,27.555537Q14.57345,27.606597,14.6024,27.660754Q14.63135,27.714911999999998,14.65485,27.771646Q14.67835,27.82838,14.69618,27.887144Q14.714,27.945908,14.72598,28.00614Q14.737960000000001,28.06637,14.74398,28.12748Q14.75,28.18859,14.75,28.25Z" fill-opacity="1"/></g><g transform="matrix(0,1,-1,0,30.791015625,-5.208984375)"><path d="M18,17.291015625C18,17.863255625,18.447198,18.327325625,18.999196,18.327885625L25.949379999999998,18.327865625L25.94038,18.336165625C25.60932,18.627515625,25.25826,18.912655625,24.93121,19.179125625L24.85519,19.241335624999998C24.529130000000002,19.506765625,24.18608,19.786715625,23.97004,20.003425625C23.56721,20.401215625,23.554949999999998,21.063335625,23.94273,21.476885625C24.33052,21.890435625000002,24.96931,21.896445625,25.36428,21.490265625C25.4863,21.367915625000002,25.72834,21.166765625,26.090400000000002,20.871265625L26.17041,20.805945625C26.493470000000002,20.543615625,26.872529999999998,20.234635625,27.2336,19.917365625000002C27.62066,19.577275625,28.023699999999998,19.195715625,28.3368,18.815185624999998C28.5019,18.619085625,28.6464,18.405325625,28.767899999999997,18.177525625C28.8829,17.954605625,29.0019,17.646655625,29.0019,17.289975625C29.0019,16.933305625,28.8829,16.625355625,28.767899999999997,16.402435625C28.6465,16.174575625,28.502000000000002,15.960805624999999,28.3368,15.764775625C27.997439999999997,15.368035625000001,27.62858,14.999505625,27.2336,14.662595625C26.872529999999998,14.345325625000001,26.493470000000002,14.036335625,26.17041,13.774016625L26.090400000000002,13.708694625C25.84008,13.513025625000001,25.59782,13.306509625,25.36428,13.089694625L25.36328,13.091765625C24.96831,12.685587625,24.32952,12.691598725,23.94174,13.105144625C23.55395,13.518692625,23.56622,14.180805625,23.96904,14.578605625C24.18408,14.795315625,24.52713,15.075265625,24.85419,15.340695625L24.9302,15.402905624999999C25.25826,15.669375625,25.60832,15.954515624999999,25.94038,16.245865625L25.949379999999998,16.254165625L18.999196,16.254145625C18.447199,16.254705625,18,16.718775625,18,17.291015625Z" fill-opacity="1"/></g></g></svg>