<svg xmlns="http://www.w3.org/2000/svg" xmlns:xlink="http://www.w3.org/1999/xlink" fill="none" version="1.1" width="18.749998092651367" height="20" viewBox="0 0 18.749998092651367 20"><defs><clipPath id="master_svg0_2313_94065"><rect x="0" y="0" width="18.749998092651367" height="20" rx="0"/></clipPath></defs><g clip-path="url(#master_svg0_2313_94065)"><g><path d="M18.75,10C18.75,4.47715,14.5527,0,9.375,0C4.19733,0,0,4.47715,0,10C0,14.9912,3.42829,19.1283,7.91015,19.8785C7.91015,19.8785,7.91015,12.8906,7.91015,12.8906C7.91015,12.8906,5.52979,12.8906,5.52979,12.8906C5.52979,12.8906,5.52979,10,5.52979,10C5.52979,10,7.91015,10,7.91015,10C7.91015,10,7.91015,7.79688,7.91015,7.79688C7.91015,5.29063,9.30981,3.90625,11.4512,3.90625C12.4766,3.90625,13.5498,4.10156,13.5498,4.10156C13.5498,4.10156,13.5498,6.5625,13.5498,6.5625C13.5498,6.5625,12.3677,6.5625,12.3677,6.5625C11.2031,6.5625,10.8398,7.3334,10.8398,8.125C10.8398,8.125,10.8398,10,10.8398,10C10.8398,10,13.4399,10,13.4399,10C13.4399,10,13.0243,12.8906,13.0243,12.8906C13.0243,12.8906,10.8398,12.8906,10.8398,12.8906C10.8398,12.8906,10.8398,19.8785,10.8398,19.8785C15.3217,19.1283,18.75,14.9912,18.75,10C18.75,10,18.75,10,18.75,10Z" fill="#FFFFFF" fill-opacity="1"/></g></g></svg>