<svg xmlns="http://www.w3.org/2000/svg" xmlns:xlink="http://www.w3.org/1999/xlink" version="1.1" width="20" height="20" viewBox="0 0 20 20"><defs><clipPath id="master_svg0_2472_083607/2313_023386"><rect x="0" y="0" width="20" height="20" rx="0"/></clipPath></defs><g clip-path="url(#master_svg0_2472_083607/2313_023386)"><g><path d="M9.70736,0.05011635C4.01292,0.180116,-0.192973,5.030115,0.00683151,10.320075C0.206636,15.630075,4.55239,20.220075,10.3667,19.990075C15.8713,19.780075,19.9374,15.250075,19.9573,10.070075C19.8574,4.320115,15.3918,-0.08988399999999999,9.70736,0.05011635ZM1.40547,8.990115C1.83505,6.000115,3.39352,3.800115,6.05093,2.380115C5.41155,3.490115,4.88207,4.640115,4.55239,5.880115C4.29265,6.880115,4.09284,7.880115,4.06287,8.910115C4.05288,9.290115,3.933,9.380115,3.57335,9.370115C2.97393,9.340115,2.36453,9.350115,1.76511,9.370115C1.4754,9.370115,1.3655,9.310115,1.40547,8.990115ZM5.5714,17.450075C3.18373,15.990075,1.83505,13.850075,1.41546,11.100075C1.3655,10.750075,1.46541,10.670075,1.79509,10.690075C2.3945,10.710075,3.00391,10.720075,3.60332,10.690075C3.96297,10.670075,4.0329,10.810075,4.06287,11.140075C4.18275,13.180075,4.6423,15.130075,5.66131,16.920075C5.79118,17.150075,5.93105,17.370075,6.09089,17.630075C5.84113,17.680075,5.71126,17.530075,5.5714,17.450075ZM9.31774,14.630075L9.31774,18.040075C9.31774,18.590075,9.26779,18.630075,8.75829,18.370075C7.90912,17.940075,7.31969,17.230075,6.85015,16.420075C5.89109,14.740075,5.50147,12.900075,5.37159,10.990075C5.3616,10.780075,5.41155,10.700075,5.62135,10.700075C6.76024,10.700075,7.88913,10.710075,9.02802,10.700075C9.37768,10.700075,9.31774,10.930075,9.31774,11.130075L9.31774,14.630075ZM8.82822,9.370115C7.77924,9.340115,6.74026,9.360115,5.69128,9.360115C5.4715,9.360115,5.34162,9.350115,5.3616,9.050115C5.49148,7.230115,5.85113,5.470115,6.73027,3.860115C7.19981,2.990115,7.79922,2.230115,8.68835,1.740115C8.86818,1.640115,9.048,1.520115,9.31774,1.540115L9.31774,3.030115C9.31774,4.980115,9.30775,6.930115,9.32773,8.880115C9.33772,9.290115,9.21784,9.380115,8.82822,9.370115ZM18.4089,8.270115C18.6386,9.340115,18.6087,9.350115,17.5297,9.350115C17.0402,9.350115,16.4308,9.520115,16.0711,9.290115C15.6915,9.050115,15.8813,8.390115,15.8214,7.910115C15.5517,5.920115,14.9722,4.050115,13.8733,2.350115C16.3109,3.620115,17.8394,5.590115,18.4089,8.270115ZM10.6464,1.480115C11.6854,1.800115,12.3448,2.480115,12.8743,3.290115C14.0231,5.040115,14.4228,7.020115,14.5926,9.070115C14.6126,9.310115,14.5326,9.370115,14.3029,9.360115C13.184,9.350115,12.075,9.350115,10.9561,9.360115C10.6764,9.360115,10.6464,9.250115,10.6464,9.020115L10.6464,1.480115ZM11.056,18.420075C10.7364,18.570075,10.6365,18.530075,10.6464,18.150075C10.6664,16.960075,10.6564,15.780075,10.6564,14.590075C10.6564,13.420075,10.6664,12.250075,10.6564,11.080075C10.6564,10.810075,10.6764,10.670075,11.0161,10.680075C12.095,10.700075,13.174,10.700075,14.2529,10.680075C14.5326,10.680075,14.6226,10.750075,14.6026,11.030075C14.4327,13.120075,14.0032,15.120075,12.7943,16.880075C12.3348,17.540075,11.7853,18.080075,11.056,18.420075ZM16.5707,15.600075C15.8214,16.490075,14.9223,17.190075,13.8533,17.700075C14.8024,16.240075,15.3918,14.650075,15.6915,12.950075C15.7914,12.360075,15.8713,11.760075,15.9013,11.160075C15.9213,10.760075,16.0811,10.670075,16.4608,10.690075C16.9902,10.720075,17.5297,10.740075,18.0492,10.690075C18.5587,10.640075,18.5887,10.860075,18.5287,11.270075C18.259,12.880075,17.6296,14.330075,16.5707,15.600075Z" fill-opacity="1"/></g></g></svg>
