<svg xmlns="http://www.w3.org/2000/svg" xmlns:xlink="http://www.w3.org/1999/xlink" fill="none" version="1.1" width="28" height="28" viewBox="0 0 28 28"><defs><clipPath id="master_svg0_2252_25574"><rect x="0" y="0" width="28" height="28" rx="0"/></clipPath><filter id="master_svg1_2252_25580" filterUnits="objectBoundingBox" color-interpolation-filters="sRGB" x="0" y="0" width="17.5" height="17.5"><feFlood flood-opacity="0" result="BackgroundImageFix"/><feBlend mode="normal" in="SourceGraphic" in2="BackgroundImageFix" result="shape"/><feGaussianBlur in="BackgroundImage" stdDeviation="5"/><feComposite in2="SourceAlpha" operator="in" result="effect1_foregroundBlur"/><feBlend mode="normal" in="SourceGraphic" in2="effect1_foregroundBlur" result="shape"/></filter><linearGradient x1="0.8505859375" y1="0.2238750457763672" x2="0.08457031100988388" y2="1" id="master_svg2_2125_29046"><stop offset="5.714286118745804%" stop-color="#FFFFFF" stop-opacity="1"/><stop offset="41.50588810443878%" stop-color="#FFFFFF" stop-opacity="0.5100903511047363"/><stop offset="97.14285135269165%" stop-color="#636060" stop-opacity="0.33000001311302185"/></linearGradient></defs><g clip-path="url(#master_svg0_2252_25574)"><g><path d="M12.83333,3.5L22.1667,3.5C23.4553,3.5,24.5,4.54467,24.5,5.83333L24.5,15.1667C24.5,16.4553,23.4553,17.5,22.1667,17.5L12.83333,17.5C11.54467,17.5,10.5,16.4553,10.5,15.1667L10.5,5.83333C10.5,4.54467,11.54467,3.500000534058,12.83333,3.5Z" fill="#696972" fill-opacity="1"/></g><g style="opacity:0.800000011920929;" filter="url(#master_svg1_2252_25580)"><path d="M5.83333,7L18.6667,7C19.9553,7,21,8.04467,21,9.33333L21,22.1667C21,23.4553,19.9553,24.5,18.6667,24.5L5.83333,24.5C4.54467,24.5,3.500000267029,23.4553,3.5,22.1667L3.5,9.33333C3.5,8.04467,4.54467,7,5.83333,7Z" fill="url(#master_svg2_2125_29046)" fill-opacity="1"/></g><g><path d="M12.5810106640625,13.083418046875C13.0109306640625,13.083418046875,13.3591806640625,13.422918046875001,13.3591806640625,13.841748046875L13.3591806640625,19.150078046875002L14.1367606640625,19.150078046875002C14.5661006640625,19.150078046875002,14.9143506640625,19.489578046875,14.9143506640625,19.908418046875C14.9143506640625,20.327248046875,14.5661006640625,20.666748046875,14.1367606640625,20.666748046875L11.0258476640625,20.666748046875C10.5959306640625,20.666748046875,10.2476806640625,20.327248046875,10.2476806640625,19.908418046875C10.2476806640625,19.489578046875,10.5959306640625,19.150078046875002,11.0258476640625,19.150078046875002L11.8034306640625,19.150078046875002L11.8034306640625,14.600078046875L11.0258476640625,14.600078046875C10.5959306640625,14.600078046875,10.2476806640625,14.260578046875,10.2476806640625,13.841748046875C10.2476806640625,13.422918046875001,10.5959306640625,13.083418046875,11.0258476640625,13.083418046875L12.5810106640625,13.083418046875ZM11.9976806640625,10.166748046875C12.6420106640625,10.166747512817,13.1643506640625,10.689082046875,13.1643506640625,11.333418046875C13.1643506640625,11.977748046875,12.6420106640625,12.500078046875,11.9976806640625,12.500078046875C11.3536606640625,12.499638046874999,10.8318196640625,11.977428046875,10.8318196640625,11.333418046875C10.8318196640625,10.689397046875,11.3536606640625,10.167192916875,11.9976806640625,10.166748046875Z" fill="#696972" fill-opacity="1"/></g></g></svg>