<svg xmlns="http://www.w3.org/2000/svg" xmlns:xlink="http://www.w3.org/1999/xlink" version="1.1" width="20" height="20" viewBox="0 0 20 20"><defs><clipPath id="master_svg0_2550_37678"><rect x="0" y="0" width="20" height="20" rx="0"/></clipPath></defs><g clip-path="url(#master_svg0_2550_37678)"><g><path d="M19.9998,10.0074L19.9998,14.1357C20.0135,15.6867,19.4343,17.1843,18.3805,18.3224C17.2424,19.3762,15.7448,19.9554,14.1939,19.9417L5.9372,19.9417C4.38203,19.9547,2.88009,19.3758,1.73594,18.3224C0.639594,17.2026,0.017741,15.7028,0,14.1357L0,10.0074L0,5.83532C0.0138781,4.28732,0.613237,2.80195,1.67759,1.67782C2.80172,0.61347,4.28708,0.0141114,5.83509,0.000233398L14.0917,0.000233398C15.6427,-0.0135012,17.1403,0.56572,18.2784,1.61947C19.3512,2.76055,19.9463,4.26914,19.9414,5.83532C19.9852,6.63765,19.9998,8.00889,19.9998,10.0074ZM10.9991,1.79452L6.37484,1.79452C5.92557,1.81587,5.47765,1.85969,5.03276,1.92581C4.71469,1.98002,4.4022,2.06302,4.09915,2.1738C3.65503,2.3312,3.25143,2.58531,2.91754,2.91778C2.58517,3.23756,2.32633,3.62582,2.15898,4.05562C2.05007,4.35925,1.96711,4.67158,1.91099,4.98923C1.84486,5.43412,1.80105,5.88204,1.7797,6.3313L1.7797,13.6252C1.80105,14.0744,1.84487,14.5223,1.91099,14.9672C1.96326,15.2857,2.04631,15.5984,2.15898,15.9008C2.50694,16.7679,3.19101,17.4572,4.05539,17.8118C4.35907,17.9171,4.6715,17.9952,4.989,18.0452C5.43198,18.1259,5.88086,18.1698,6.33107,18.1765L13.6249,18.1765C14.0751,18.1698,14.524,18.1259,14.967,18.0452C15.2849,17.997,15.5975,17.9189,15.9006,17.8118C16.7734,17.4649,17.4646,16.7736,17.8116,15.9008C17.9186,15.5977,17.9968,15.2851,18.045,14.9672C18.1183,14.5233,18.1622,14.0749,18.1763,13.6252L18.1763,10.9994L18.1763,10.0074L18.1763,7.62961L18.1763,6.37507C18.1622,5.92531,18.1183,5.47697,18.045,5.033C17.993,4.7159,17.915,4.40363,17.8116,4.09938C17.457,3.23501,16.7677,2.55094,15.9006,2.20298C15.5982,2.09031,15.2855,2.00726,14.967,1.95499C14.5221,1.88886,14.0742,1.84504,13.6249,1.8237L12.3704,1.8237C12.064,1.77994,11.6702,1.77994,10.9991,1.79452ZM13.6395,6.37507C14.6032,7.33465,15.1306,8.64784,15.0983,10.0074C15.0983,12.8433,12.7993,15.1423,9.96342,15.1423C8.60384,15.1746,7.29065,14.6472,6.33107,13.6835C5.36593,12.7249,4.83828,11.4111,4.8723,10.0512C4.83301,8.69035,5.36147,7.37448,6.33107,6.41883C7.28672,5.44923,8.60259,4.92077,9.96342,4.96006C11.3319,4.9023,12.663,5.41467,13.6395,6.37507ZM12.3558,12.356C12.9957,11.7443,13.3501,10.8925,13.3332,10.0074C13.3489,9.11828,12.9949,8.2625,12.3558,7.6442C11.744,7.00434,10.8923,6.64988,10.0072,6.66682C8.16222,6.66682,6.66659,8.16245,6.66659,10.0074C6.64965,10.8925,7.0041,11.7443,7.64397,12.356C8.26227,12.9952,9.11805,13.3491,10.0072,13.3334C10.8923,13.3504,11.744,12.9959,12.3558,12.356ZM16.1924,3.82222C16.4224,4.04277,16.5494,4.34969,16.5425,4.6683C16.5425,5.32894,16.0069,5.8645,15.3463,5.8645C15.0277,5.87143,14.7208,5.74443,14.5002,5.51439C14.2731,5.29183,14.1467,4.98625,14.1501,4.6683C14.1501,4.00766,14.6856,3.47211,15.3463,3.47211C15.6642,3.46868,15.9698,3.59512,16.1924,3.82222Z" fill-opacity="1"/></g></g></svg>