<svg xmlns="http://www.w3.org/2000/svg" xmlns:xlink="http://www.w3.org/1999/xlink" version="1.1" width="18.749998092651367" height="20" viewBox="0 0 18.749998092651367 20"><defs><clipPath id="master_svg0_2313_94069"><rect x="0" y="0" width="18.749998092651367" height="20" rx="0"/></clipPath></defs><g clip-path="url(#master_svg0_2313_94069)"><g><g><path d="M17.362,0C17.362,0,1.38427,0,1.38427,0C0.618896,0,0,0.644531,0,1.44141C0,1.44141,0,18.5547,0,18.5547C0,19.3516,0.618896,20,1.38427,20C1.38427,20,17.362,20,17.362,20C18.1274,20,18.75,19.3516,18.75,18.5586C18.75,18.5586,18.75,1.44141,18.75,1.44141C18.75,0.644531,18.1274,0,17.362,0C17.362,0,17.362,0,17.362,0ZM5.56274,17.043C5.56274,17.043,2.77954,17.043,2.77954,17.043C2.77954,17.043,2.77954,7.49609,2.77954,7.49609C2.77954,7.49609,5.56274,7.49609,5.56274,7.49609C5.56274,7.49609,5.56274,17.043,5.56274,17.043C5.56274,17.043,5.56274,17.043,5.56274,17.043ZM4.17114,6.19531C3.27758,6.19531,2.55615,5.42578,2.55615,4.47656C2.55615,3.52734,3.27758,2.75781,4.17114,2.75781C5.06104,2.75781,5.78247,3.52734,5.78247,4.47656C5.78247,5.42188,5.06104,6.19531,4.17114,6.19531C4.17114,6.19531,4.17114,6.19531,4.17114,6.19531ZM15.9778,17.043C15.9778,17.043,13.1982,17.043,13.1982,17.043C13.1982,17.043,13.1982,12.4023,13.1982,12.4023C13.1982,11.2969,13.1799,9.87109,11.7517,9.87109C10.3052,9.87109,10.0854,11.0781,10.0854,12.3242C10.0854,12.3242,10.0854,17.043,10.0854,17.043C10.0854,17.043,7.30957,17.043,7.30957,17.043C7.30957,17.043,7.30957,7.49609,7.30957,7.49609C7.30957,7.49609,9.97556,7.49609,9.97556,7.49609C9.97556,7.49609,9.97556,8.80078,9.97556,8.80078C9.97556,8.80078,10.0122,8.80078,10.0122,8.80078C10.3821,8.05078,11.2903,7.25781,12.6416,7.25781C15.4578,7.25781,15.9778,9.23438,15.9778,11.8047C15.9778,11.8047,15.9778,17.043,15.9778,17.043C15.9778,17.043,15.9778,17.043,15.9778,17.043C15.9778,17.043,15.9778,17.043,15.9778,17.043Z" fill-opacity="1"/></g></g></g></svg>