<svg xmlns="http://www.w3.org/2000/svg" xmlns:xlink="http://www.w3.org/1999/xlink" fill="none" version="1.1" width="28" height="28" viewBox="0 0 28 28"><defs><clipPath id="master_svg0_2252_25558"><rect x="0" y="0" width="28" height="28" rx="0"/></clipPath><filter id="master_svg1_2252_25561" filterUnits="objectBoundingBox" color-interpolation-filters="sRGB" x="0" y="0" width="19" height="19"><feFlood flood-opacity="0" result="BackgroundImageFix"/><feBlend mode="normal" in="SourceGraphic" in2="BackgroundImageFix" result="shape"/><feGaussianBlur in="BackgroundImage" stdDeviation="5"/><feComposite in2="SourceAlpha" operator="in" result="effect1_foregroundBlur"/><feBlend mode="normal" in="SourceGraphic" in2="effect1_foregroundBlur" result="shape"/></filter><linearGradient x1="0.8505859375" y1="0.2238750457763672" x2="0.08457031100988388" y2="1" id="master_svg2_2125_29046"><stop offset="5.714286118745804%" stop-color="#FFFFFF" stop-opacity="1"/><stop offset="41.50588810443878%" stop-color="#FFFFFF" stop-opacity="0.5100903511047363"/><stop offset="97.14285135269165%" stop-color="#636060" stop-opacity="0.33000001311302185"/></linearGradient><filter id="master_svg3_2252_25564" filterUnits="objectBoundingBox" color-interpolation-filters="sRGB" x="0" y="0" width="7" height="1.75"><feFlood flood-opacity="0" result="BackgroundImageFix"/><feBlend mode="normal" in="SourceGraphic" in2="BackgroundImageFix" result="shape"/><feGaussianBlur in="BackgroundImage" stdDeviation="5"/><feComposite in2="SourceAlpha" operator="in" result="effect1_foregroundBlur"/><feBlend mode="normal" in="SourceGraphic" in2="effect1_foregroundBlur" result="shape"/></filter><filter id="master_svg4_2252_25565" filterUnits="objectBoundingBox" color-interpolation-filters="sRGB" x="0" y="0" width="10.5" height="1.75"><feFlood flood-opacity="0" result="BackgroundImageFix"/><feBlend mode="normal" in="SourceGraphic" in2="BackgroundImageFix" result="shape"/><feGaussianBlur in="BackgroundImage" stdDeviation="5"/><feComposite in2="SourceAlpha" operator="in" result="effect1_foregroundBlur"/><feBlend mode="normal" in="SourceGraphic" in2="effect1_foregroundBlur" result="shape"/></filter><filter id="master_svg5_2252_25566" filterUnits="objectBoundingBox" color-interpolation-filters="sRGB" x="0" y="0" width="6.416666030883789" height="6.421097278594971"><feFlood flood-opacity="0" result="BackgroundImageFix"/><feBlend mode="normal" in="SourceGraphic" in2="BackgroundImageFix" result="shape"/><feGaussianBlur in="BackgroundImage" stdDeviation="5"/><feComposite in2="SourceAlpha" operator="in" result="effect1_foregroundBlur"/><feBlend mode="normal" in="SourceGraphic" in2="effect1_foregroundBlur" result="shape"/></filter><linearGradient x1="0.8505859375" y1="0.2238750457763672" x2="0.08457031100988388" y2="1" id="master_svg6_2125_29046"><stop offset="5.714286118745804%" stop-color="#FFFFFF" stop-opacity="1"/><stop offset="41.50588810443878%" stop-color="#FFFFFF" stop-opacity="0.5100903511047363"/><stop offset="97.14285135269165%" stop-color="#636060" stop-opacity="0.33000001311302185"/></linearGradient></defs><g clip-path="url(#master_svg0_2252_25558)"><g><rect x="7" y="2" width="18" height="16" rx="3" fill="#696972" fill-opacity="1"/></g><g style="opacity:0.800000011920929;" filter="url(#master_svg1_2252_25561)"><path d="M15.1389,8.60353C15.1389,10.22687,16.0696,11.70646,17.5328,12.40939C18.9961,13.11232,20.7328,12.91409,22,11.8995L22,22.8889C22,24.0548,21.0548,25,19.8889,25L5.11111,25C3.945177,25,3.000000241597,24.0548,3,22.8889L3,8.11111C3,6.945177,3.945177,6.000000241597,5.11111,6L16.0372,6C15.4539,6.742372,15.1375,7.65944,15.1389,8.60353Z" fill="url(#master_svg2_2125_29046)" fill-opacity="1"/></g><g style="opacity:0.800000011920929;" filter="url(#master_svg3_2252_25564)"><path d="M7.039306640625,16.25146484375L12.289306640625,16.25146484375Q13.164306640625,16.25146484375,13.164306640625,17.12646484375Q13.164306640625,18.00146484375,12.289306640625,18.00146484375L7.039306640625,18.00146484375Q6.164306640625,18.00146484375,6.164306640625,17.12646484375Q6.164306640625,16.25146484375,7.039306640625,16.25146484375Z" fill="#696972" fill-opacity="1"/></g><g style="opacity:0.800000011920929;" filter="url(#master_svg4_2252_25565)"><path d="M7.039306640625,20.334716796875L15.789306640625,20.334716796875Q16.664306640625,20.334716796875,16.664306640625,21.209716796875Q16.664306640625,22.084716796875,15.789306640625,22.084716796875L7.039306640625,22.084716796875Q6.164306640625,22.084716796875,6.164306640625,21.209716796875Q6.164306640625,20.334716796875,7.039306640625,20.334716796875Z" fill="#696972" fill-opacity="1"/></g><g style="opacity:0.800000011920929;" filter="url(#master_svg5_2252_25566)"><path d="M23.0845159765625,8.12510078125Q23.0845159765625,8.282820781249999,23.0690559765625,8.43979078125Q23.0536059765625,8.59675078125,23.0228459765625,8.75144078125Q22.9920859765625,8.90614078125,22.946315976562502,9.057070781250001Q22.9005459765625,9.20800078125,22.8402059765625,9.35372078125Q22.7798659765625,9.49944078125,22.7055359765625,9.63854078125Q22.631205976562498,9.77764078125,22.5436059765625,9.90878078125Q22.4560059765625,10.03993078125,22.3559759765625,10.16185078125Q22.2559459765625,10.28377078125,22.1444559765625,10.39530078125Q22.0329659765625,10.506830781249999,21.9110759765625,10.60689078125Q21.7891959765625,10.706940781250001,21.6580959765625,10.79457078125Q21.5269859765625,10.882200781249999,21.3879359765625,10.95655078125Q21.248875976562502,11.03090078125,21.1032059765625,11.09126078125Q20.9575259765625,11.15162078125,20.8066459765625,11.19740078125Q20.6557559765625,11.24319078125,20.5011059765625,11.27396078125Q20.3464659765625,11.30473078125,20.1895459765625,11.32019078125Q20.0326359765625,11.33565078125,19.8749559765625,11.33565078125Q19.7172859765625,11.33565078125,19.5603659765625,11.32019078125Q19.4034459765625,11.30473078125,19.2488059765625,11.27396078125Q19.0941559765625,11.24319078125,18.9432759765625,11.19740078125Q18.7923859765625,11.15162078125,18.6467159765625,11.09126078125Q18.5010359765625,11.03090078125,18.3619859765625,10.95655078125Q18.2229259765625,10.882200781249999,18.0918259765625,10.79457078125Q17.9607159765625,10.706940781250001,17.8388359765625,10.60689078125Q17.7169459765625,10.506830781249999,17.6054579765625,10.39530078125Q17.4939639765625,10.28377078125,17.3939359765625,10.16185078125Q17.2939079765625,10.03993078125,17.2063079765625,9.90878078125Q17.1187079765625,9.77764078125,17.0443799765625,9.63854078125Q16.9700529765625,9.49944078125,16.9097129765625,9.35372078125Q16.8493729765625,9.20800078125,16.8036019765625,9.057070781250001Q16.7578314765625,8.90614078125,16.7270705765625,8.75144078125Q16.6963095765625,8.59675078125,16.6808546765625,8.43979078125Q16.6653997765625,8.282820781249999,16.6653997765625,8.12510078125Q16.6653997765625,7.9673707812500005,16.6808546765625,7.81041078125Q16.6963095765625,7.65344078125,16.7270704765625,7.49875078125Q16.7578314765625,7.3440607812500005,16.8036019765625,7.19312078125Q16.8493729765625,7.0421907812499995,16.9097129765625,6.89647078125Q16.9700529765625,6.7507607812499995,17.0443799765625,6.61166078125Q17.1187079765625,6.4725607812499995,17.2063079765625,6.34141078125Q17.2939079765625,6.21027078125,17.3939359765625,6.08835078125Q17.4939639765625,5.96643078125,17.6054579765625,5.85489878125Q17.7169459765625,5.74337078125,17.8388359765625,5.64331178125Q17.9607159765625,5.54325278125,18.0918259765625,5.45562578125Q18.2229259765625,5.36799878125,18.3619859765625,5.29364778125Q18.5010359765625,5.21929778125,18.6467159765625,5.15893878125Q18.7923859765625,5.09858078125,18.9432759765625,5.05279578125Q19.0941559765625,5.00701098125,19.2488059765625,4.97624058125Q19.4034459765625,4.94547008125,19.5603659765625,4.93001048125Q19.7172859765625,4.91455078125,19.8749559765625,4.91455078125Q20.0326359765625,4.91455078125,20.1895459765625,4.93001048125Q20.3464659765625,4.94547008125,20.5011059765625,4.97624058125Q20.6557559765625,5.00701098125,20.8066459765625,5.05279578125Q20.9575259765625,5.09858078125,21.1032059765625,5.15893878125Q21.248875976562502,5.21929778125,21.3879359765625,5.29364778125Q21.5269859765625,5.36799878125,21.6580959765625,5.45562578125Q21.7891959765625,5.54325278125,21.9110759765625,5.64331178125Q22.0329659765625,5.74337078125,22.1444559765625,5.85489878125Q22.2559459765625,5.96643078125,22.3559759765625,6.08835078125Q22.4560059765625,6.21027078125,22.5436059765625,6.34141078125Q22.631205976562498,6.4725607812499995,22.7055359765625,6.61166078125Q22.7798659765625,6.7507607812499995,22.8402059765625,6.89647078125Q22.9005459765625,7.0421907812499995,22.946315976562502,7.19313078125Q22.9920859765625,7.3440607812500005,23.0228459765625,7.49875078125Q23.0536059765625,7.65345078125,23.0690659765625,7.81041078125Q23.0845159765625,7.9673707812500005,23.0845159765625,8.12510078125Z" fill="url(#master_svg6_2125_29046)" fill-opacity="1"/></g></g></svg>