<svg xmlns="http://www.w3.org/2000/svg" xmlns:xlink="http://www.w3.org/1999/xlink" version="1.1" width="45" height="45" viewBox="0 0 45 45"><defs><clipPath id="master_svg0_2517_44342"><rect x="0" y="0" width="45" height="45" rx="0"/></clipPath></defs><g clip-path="url(#master_svg0_2517_44342)"><g><path d="M8.59941625,32.492275C6.66661625,30.439975,5.62890625,28.138175,5.62890625,24.406975C5.62890625,17.841234999999998,10.23947625,11.956445,16.94420625,9.046875C16.94420625,9.046875,18.62000625,11.631905,18.62000625,11.631905C12.36180625,15.016085,11.13832625,19.407575,10.65043625,22.176475C11.658116249999999,21.654975,12.97729625,21.473075,14.27016625,21.593075C17.65540625,21.906375,20.32380625,24.684675,20.32380625,28.138275C20.32380625,29.879575,19.63190625,31.549575,18.40010625,32.780875C17.16850625,34.012275,15.49789625,34.703975,13.75604625,34.703975C11.74255625,34.703975,9.81726625,33.784774999999996,8.59941625,32.492275ZM27.36450625,32.492275C25.43170625,30.439975,24.39390625,28.138175,24.39390625,24.406975C24.39390625,17.841234999999998,29.00460625,11.956445,35.70930625,9.046875C35.70930625,9.046875,37.38500625,11.631905,37.38500625,11.631905C31.12680625,15.016085,29.90340625,19.407575,29.41550625,22.176475C30.42310625,21.654975,31.74230625,21.473075,33.03520625,21.593075C36.42040625,21.906375,39.08880625,24.684675,39.08880625,28.138275C39.08880625,29.879575,38.39690625,31.549575,37.16520625,32.780875C35.93350625,34.012275,34.26290625,34.703975,32.52100625,34.703975C30.50760625,34.703975,28.58230625,33.784774999999996,27.36450625,32.492275Z" fill-opacity="1"/></g></g></svg>