<svg xmlns="http://www.w3.org/2000/svg" xmlns:xlink="http://www.w3.org/1999/xlink" fill="none" version="1.1" width="36" height="36" viewBox="0 0 36 36"><defs><linearGradient x1="0.8505859375" y1="0.2238750457763672" x2="0.08457031100988388" y2="1" id="master_svg0_2125_27421"><stop offset="0%" stop-color="#FFFFFF" stop-opacity="1"/><stop offset="100%" stop-color="#FFFFFF" stop-opacity="0.33000001311302185"/></linearGradient></defs><g><g></g><g><path d="M1,22C1,24.2091,2.79086,26,5,26L31,26C33.2091,26,35,24.2091,35,22L35,6C35,4.34315,33.6569,3,32,3L5,3C2.79086,3,1,4.79086,1,7L1,22Z" fill="#FFFFFF" fill-opacity="0.800000011920929"/></g><g><path d="M7,30C7,31.6569,8.34315,33,10,33L26,33C27.6569,33,29,31.6569,29,30L29,19C29,17.34315,27.6569,16,26,16L11,16C8.79086,16,7,17.79086,7,20L7,30Z" fill="url(#master_svg0_2125_27421)" fill-opacity="1"/></g></g></svg>