<svg xmlns="http://www.w3.org/2000/svg" xmlns:xlink="http://www.w3.org/1999/xlink" fill="none" version="1.1" width="36" height="36" viewBox="0 0 36 36"><defs><filter id="master_svg0_2125_29075" filterUnits="objectBoundingBox" color-interpolation-filters="sRGB" x="0" y="0" width="22" height="16.99365234375"><feFlood flood-opacity="0" result="BackgroundImageFix"/><feBlend mode="normal" in="SourceGraphic" in2="BackgroundImageFix" result="shape"/><feGaussianBlur in="BackgroundImage" stdDeviation="5"/><feComposite in2="SourceAlpha" operator="in" result="effect1_foregroundBlur"/><feBlend mode="normal" in="SourceGraphic" in2="effect1_foregroundBlur" result="shape"/></filter><linearGradient x1="0.8505859375" y1="0.2238750457763672" x2="0.08457031100988388" y2="1" id="master_svg1_2125_29046"><stop offset="5.714286118745804%" stop-color="#FFFFFF" stop-opacity="1"/><stop offset="41.50588810443878%" stop-color="#FFFFFF" stop-opacity="0.5100903511047363"/><stop offset="97.14285135269165%" stop-color="#636060" stop-opacity="0.33000001311302185"/></linearGradient></defs><g><g></g><g><path d="M1,22C1,24.2091,2.79086,26,5,26L31,26C33.2091,26,35,24.2091,35,22L35,6C35,4.34315,33.6569,3,32,3L5,3C2.79086,3,1,4.79086,1,7L1,22Z" fill="#44444F" fill-opacity="0.800000011920929"/></g><g style="opacity:0.800000011920929;" filter="url(#master_svg0_2125_29075)"><path d="M7,20L7,29.9937C7,31.6505,8.34315,32.993700000000004,10,32.993700000000004L26,32.993700000000004C27.6569,32.993700000000004,29,31.6505,29,29.9937L29,19C29,17.34315,27.6569,16,26,16L11,16C8.79086,16,7,17.79086,7,20Z" fill="url(#master_svg1_2125_29046)" fill-opacity="1"/></g></g></svg>