<svg xmlns="http://www.w3.org/2000/svg" xmlns:xlink="http://www.w3.org/1999/xlink" fill="none" version="1.1" width="48" height="48" viewBox="0 0 48 48"><defs><mask id="master_svg0_2560_33085" style="mask-type:alpha" maskUnits="userSpaceOnUse"><g><rect x="0" y="0" width="48" height="48" rx="0" fill="#FFFFFF" fill-opacity="1"/></g></mask></defs><g><g mask="url(#master_svg0_2560_33085)"><g><path d="M27.7036,2.93227Q27.7479,3.0271799999999995,27.796999999999997,3.1196900000000003Q27.8461,3.2121999999999993,27.899900000000002,3.3020700000000005Q27.953699999999998,3.39194,28.012,3.4789399999999997Q28.070300000000003,3.5659399999999994,28.133000000000003,3.6498399999999993Q28.195700000000002,3.733739999999999,28.2626,3.8143200000000004Q28.3296,3.8949,28.4005,3.97194Q28.4715,4.04899,28.546300000000002,4.122299999999999Q28.6211,4.19561,28.6995,4.265000000000001Q28.778,4.3343799999999995,28.859900000000003,4.399649999999999Q28.9418,4.464919999999999,29.027,4.525919999999999Q29.112099999999998,4.58691,29.2003,4.643459999999999Q29.288400000000003,4.700010000000001,29.379399999999997,4.75197Q29.4703,4.803940000000001,29.5638,4.85117Q29.6573,4.89841,29.753100000000003,4.94079Q29.848799999999997,4.983180000000001,29.9467,5.0206Q30.0445,5.058,30.1441,5.090400000000001Q30.243699999999997,5.1228,30.3448,5.15Q30.445999999999998,5.177199999999999,30.5484,5.199199999999999Q30.650799999999997,5.2212,30.754199999999997,5.2379999999999995Q30.857599999999998,5.2547,30.9617,5.2661Q31.065800000000003,5.2775,31.1704,5.2836Q31.274900000000002,5.2897,31.3797,5.2904Q31.4844,5.2911,31.589,5.2864Q31.6937,5.281700000000001,31.7979,5.271699999999999Q31.9022,5.261699999999999,32.0058,5.2463999999999995Q32.1094,5.231,32.2121,5.2104Q32.3148,5.1898,32.4163,5.1639Q32.5178,5.1381,32.6178,5.106999999999999Q32.7179,5.0760000000000005,32.8162,5.039899999999999Q32.9145,5.0038,33.0108,4.9627099999999995Q33.1072,4.921620000000001,33.2013,4.875640000000001Q33.2954,4.82967,33.387,4.77894L33.387,4.77894Q33.5138,4.70875,33.6452,4.64771Q33.7766,4.586679999999999,33.9121,4.5351Q34.0475,4.48352,34.1862,4.441660000000001Q34.3249,4.39981,34.4663,4.3678799999999995Q34.6076,4.33595,34.7509,4.3141099999999994Q34.8941,4.29227,35.0385,4.28063Q35.183,4.2689900000000005,35.3279,4.2676099999999995Q35.4728,4.26623,35.6174,4.27511Q35.7621,4.283989999999999,35.9057,4.303089999999999Q36.0493,4.322190000000001,36.1913,4.351419999999999Q36.3332,4.38064,36.4727,4.419840000000001Q36.6122,4.4590499999999995,36.7486,4.50803Q36.8849,4.55701,37.0175,4.61553Q37.1501,4.67404,37.2781,4.7418Q37.4062,4.809559999999999,37.5292,4.88622Q37.6522,4.962870000000001,37.7694,5.048Q37.8866,5.1332,37.9975,5.2265Q38.1084,5.319699999999999,38.2125,5.4206Q38.3165,5.5215,38.4131,5.6295Q38.5097,5.737500000000001,38.5984,5.852Q38.6872,5.9666,38.7676,6.087199999999999Q38.8479,6.207700000000001,38.9196,6.3337Q38.9913,6.4596,39.0538,6.590299999999999Q39.1164,6.721,39.1695,6.8559Q39.2226,6.9907,39.2661,7.1289Q39.3096,7.267099999999999,39.3431,7.408099999999999Q39.3767,7.549099999999999,39.4002,7.692Q39.4237,7.835000000000001,39.437,7.9793Q39.4503,8.1236,39.4534,8.2685Q39.4564,8.4134,39.4492,8.5581Q39.442,8.7028,39.4246,8.8467Q39.4071,8.9905,39.3796,9.1328L39.3796,9.1328Q39.3596,9.2356,39.345,9.3393Q39.3303,9.443,39.321,9.5473Q39.3117,9.6517,39.3078,9.7563Q39.3038,9.861,39.3052,9.9657Q39.3066,10.0704,39.3134,10.175Q39.3202,10.2795,39.3323,10.3835Q39.3444,10.4876,39.3618,10.5908Q39.3792,10.6941,39.4019,10.7964Q39.4246,10.8986,39.4525,10.9996Q39.4804,11.1005,39.5135,11.1999Q39.5465,11.299299999999999,39.5846,11.396899999999999Q39.6227,11.494399999999999,39.6657,11.5899Q39.7087,11.685400000000001,39.7566,11.7786Q39.8045,11.8718,39.857,11.962299999999999Q39.9096,12.052900000000001,39.9668,12.140699999999999Q40.0239,12.2285,40.0855,12.313199999999998Q40.147,12.398,40.2128,12.479399999999998Q40.2787,12.5609,40.3486,12.6389Q40.4185,12.716899999999999,40.4923,12.7912Q40.5661,12.8655,40.6436,12.9359Q40.7212,13.0064,40.8022,13.072700000000001Q40.8832,13.1391,40.9675,13.2012Q41.0518,13.2634,41.1392,13.321100000000001Q41.2266,13.378799999999998,41.3169,13.431999999999999Q41.4071,13.485199999999999,41.4999,13.5337Q41.5928,13.5822,41.688,13.625900000000001Q41.7832,13.6695,41.8805,13.708300000000001Q41.9778,13.747,42.077,13.7807Q42.1761,13.8144,42.2769,13.843Q42.3777,13.8716,42.4798,13.8949Q42.5819,13.918299999999999,42.685,13.936499999999999Q42.7882,13.9546,42.8921,13.967400000000001L42.8921,13.967400000000001Q43.0359,13.9851,43.1781,14.013000000000002Q43.3203,14.0409,43.4602,14.078700000000001Q43.6001,14.116599999999998,43.7369,14.1643Q43.8737,14.212,44.0069,14.269200000000001Q44.14,14.3265,44.2687,14.393Q44.3974,14.459499999999998,44.5211,14.535Q44.6448,14.610499999999998,44.7629,14.694500000000001Q44.8809,14.7786,44.9927,14.8708Q45.1045,14.963000000000001,45.2095,15.062899999999999Q45.3144,15.162700000000001,45.4121,15.2698Q45.5097,15.3769,45.5995,15.4906Q45.6894,15.604299999999999,45.7709,15.7241Q45.8524,15.843900000000001,45.9253,15.969100000000001Q45.9981,16.0944,46.0619,16.2245Q46.1257,16.3546,46.1802,16.4889Q46.2346,16.6232,46.2794,16.761Q46.3241,16.8988,46.359,17.0394Q46.3939,17.1801,46.4188,17.3228Q46.4437,17.4656,46.4584,17.6098Q46.473,17.7539,46.4775,17.8987Q46.4819,18.0436,46.4761,18.1884Q46.4703,18.3332,46.4542,18.4772Q46.4382,18.6212,46.4119,18.7637Q46.3857,18.9062,46.3495,19.0465Q46.3132,19.1868,46.2671,19.3242Q46.221,19.4616,46.1653,19.5953Q46.1096,19.7291,46.0446,19.8586Q45.9795,19.9881,45.9055,20.1126Q45.8315,20.2372,45.7488,20.3562Q45.6661,20.4752,45.5752,20.588Q45.4843,20.7009,45.3857,20.807Q45.287,20.9132,45.1811,21.012L45.1811,21.012Q45.1045,21.0835,45.0317,21.1588Q44.9589,21.2341,44.89,21.313Q44.8212,21.3919,44.7565,21.4743Q44.6917,21.5566,44.6313,21.6422Q44.5709,21.7278,44.5149,21.8163Q44.459,21.9048,44.4076,21.9961Q44.3563,22.0874,44.3097,22.1812Q44.2631,22.275,44.2213,22.3711Q44.1796,22.4671,44.1428,22.5652Q44.1061,22.6633,44.0744,22.7631Q44.0427,22.8629,44.0161,22.9643Q43.9896,23.0656,43.9683,23.1681Q43.947,23.2707,43.9309,23.3742Q43.9149,23.4777,43.9042,23.5819Q43.8935,23.6861,43.8881,23.7907Q43.8827,23.8953,43.8827,24Q43.8827,24.1047,43.8881,24.2093Q43.8935,24.3139,43.9042,24.4181Q43.9149,24.5223,43.9309,24.6258Q43.947,24.7293,43.9683,24.8319Q43.9896,24.9344,44.0161,25.0357Q44.0427,25.1371,44.0744,25.2369Q44.1061,25.3367,44.1428,25.4348Q44.1796,25.5329,44.2213,25.6289Q44.2631,25.725,44.3097,25.8188Q44.3563,25.9126,44.4076,26.0039Q44.459,26.0952,44.5149,26.1837Q44.5709,26.2722,44.6313,26.3578Q44.6917,26.4433,44.7565,26.5257Q44.8212,26.6081,44.89,26.687Q44.9589,26.7659,45.0317,26.8412Q45.1045,26.9165,45.1811,26.988L45.1811,26.988Q45.287,27.086799999999997,45.3857,27.192999999999998Q45.4843,27.299100000000003,45.5752,27.411900000000003Q45.6661,27.5248,45.7488,27.6438Q45.8315,27.7628,45.9055,27.8874Q45.9795,28.011899999999997,46.0446,28.141399999999997Q46.1096,28.270899999999997,46.1653,28.4047Q46.221,28.538400000000003,46.2671,28.675800000000002Q46.3132,28.813200000000002,46.3495,28.9535Q46.3857,29.0938,46.4119,29.2363Q46.4381,29.3788,46.4542,29.522799999999997Q46.4703,29.666800000000002,46.4761,29.8116Q46.4819,29.956400000000002,46.4775,30.1012Q46.473,30.2461,46.4584,30.3902Q46.4437,30.534399999999998,46.4188,30.6772Q46.3939,30.819899999999997,46.359,30.960500000000003Q46.3241,31.1012,46.2794,31.238999999999997Q46.2346,31.376800000000003,46.1801,31.5111Q46.1257,31.645400000000002,46.0619,31.7755Q45.9981,31.9056,45.9253,32.0309Q45.8524,32.1561,45.7709,32.2759Q45.6893,32.3957,45.5995,32.5094Q45.5097,32.6231,45.4121,32.7302Q45.3144,32.8373,45.2094,32.9371Q45.1045,33.037,44.9927,33.1292Q44.8809,33.2214,44.7629,33.3055Q44.6448,33.3895,44.5211,33.465Q44.3974,33.5405,44.2687,33.607Q44.14,33.6735,44.0069,33.7308Q43.8737,33.788,43.7369,33.8357Q43.6001,33.8834,43.4602,33.9213Q43.3203,33.9591,43.1781,33.987Q43.0359,34.0149,42.8921,34.0326L42.8921,34.0326Q42.7882,34.0454,42.685,34.0635Q42.5819,34.0817,42.4798,34.105Q42.3777,34.1284,42.2769,34.157Q42.1761,34.1856,42.077,34.2193Q41.9778,34.253,41.8805,34.2917Q41.7832,34.3305,41.688,34.3741Q41.5928,34.4178,41.4999,34.4663Q41.4071,34.5148,41.3169,34.568Q41.2266,34.6212,41.1392,34.6789Q41.0519,34.7366,40.9675,34.7988Q40.8832,34.8609,40.8022,34.9273Q40.7212,34.9936,40.6436,35.0641Q40.5661,35.1345,40.4923,35.2088Q40.4185,35.2831,40.3486,35.3611Q40.2787,35.4391,40.2129,35.5206Q40.147,35.602,40.0855,35.6868Q40.0239,35.7715,39.9668,35.8593Q39.9096,35.9471,39.857,36.0377Q39.8045,36.1282,39.7566,36.2214Q39.7087,36.3146,39.6657,36.4101Q39.6227,36.5055,39.5846,36.6031Q39.5465,36.7007,39.5135,36.8001Q39.4804,36.8995,39.4525,37.0004Q39.4246,37.1014,39.402,37.2036Q39.3793,37.3059,39.3618,37.4092Q39.3444,37.5124,39.3323,37.6165Q39.3202,37.7205,39.3134,37.825Q39.3066,37.9296,39.3052,38.0343Q39.3038,38.139,39.3078,38.2437Q39.3117,38.3483,39.321,38.4527Q39.3303,38.557,39.345,38.6607Q39.3596,38.7644,39.3796,38.8672L39.3796,38.8672Q39.4071,39.0095,39.4246,39.1533Q39.442,39.2972,39.4492,39.4419Q39.4564,39.5866,39.4534,39.7315Q39.4503,39.8764,39.437,40.0207Q39.4237,40.165,39.4002,40.308Q39.3767,40.4509,39.3431,40.5919Q39.3096,40.7329,39.2661,40.8711Q39.2226,41.0093,39.1695,41.1441Q39.1164,41.279,39.0538,41.4097Q38.9913,41.5404,38.9196,41.6663Q38.8479,41.7923,38.7676,41.9128Q38.6872,42.0334,38.5984,42.1479Q38.5097,42.2625,38.4131,42.3705Q38.3165,42.4785,38.2124,42.5794Q38.1084,42.6803,37.9975,42.7735Q37.8866,42.8668,37.7694,42.9519Q37.6522,43.0371,37.5292,43.1138Q37.4062,43.1904,37.2781,43.2582Q37.1501,43.3259,37.0175,43.3845Q36.8849,43.443,36.7486,43.492Q36.6122,43.5409,36.4727,43.5802Q36.3332,43.6194,36.1913,43.6486Q36.0493,43.6778,35.9057,43.6969Q35.7621,43.716,35.6174,43.7249Q35.4728,43.7338,35.3279,43.7324Q35.183,43.731,35.0385,43.7194Q34.8941,43.7077,34.7509,43.6859Q34.6076,43.664,34.4663,43.6321Q34.3249,43.6002,34.1862,43.5583Q34.0475,43.5165,33.9121,43.4649Q33.7766,43.4133,33.6452,43.3523Q33.5138,43.2912,33.387,43.2211L33.387,43.2211Q33.2954,43.1703,33.2013,43.1244Q33.1072,43.0784,33.0108,43.0373Q32.9145,42.9962,32.8162,42.9601Q32.7179,42.924,32.6178,42.893Q32.5178,42.8619,32.4163,42.8361Q32.3148,42.8102,32.2121,42.7896Q32.1094,42.769,32.0058,42.7536Q31.9022,42.7383,31.7979,42.7283Q31.6937,42.7183,31.589,42.7136Q31.4844,42.7089,31.3797,42.7096Q31.274900000000002,42.7104,31.1704,42.7164Q31.065800000000003,42.7225,30.9617,42.7339Q30.857599999999998,42.7453,30.754199999999997,42.762Q30.650799999999997,42.7788,30.5484,42.8008Q30.445999999999998,42.8228,30.344900000000003,42.85Q30.243699999999997,42.8772,30.1441,42.9096Q30.0445,42.942,29.9467,42.9794Q29.848799999999997,43.0168,29.753100000000003,43.0592Q29.6573,43.1016,29.5638,43.1488Q29.4703,43.1961,29.379399999999997,43.248Q29.288400000000003,43.3,29.2003,43.3565Q29.112099999999998,43.4131,29.027,43.4741Q28.9418,43.5351,28.859900000000003,43.6003Q28.778,43.6656,28.6995,43.735Q28.6211,43.8044,28.546300000000002,43.8777Q28.4715,43.951,28.4005,44.0281Q28.3296,44.1051,28.2626,44.1857Q28.195700000000002,44.2663,28.133000000000003,44.3502Q28.070300000000003,44.434,28.012,44.521Q27.953699999999998,44.6081,27.899900000000002,44.6979Q27.8461,44.7878,27.796999999999997,44.8803Q27.7479,44.9728,27.7036,45.0677L27.7036,45.0677Q27.6423,45.199,27.571800000000003,45.3256Q27.501399999999997,45.4523,27.4221,45.5736Q27.3429,45.6949,27.2553,45.8103Q27.167700000000004,45.9257,27.0721,46.0346Q26.9765,46.1436,26.8734,46.2454Q26.7704,46.3473,26.6604,46.4416Q26.5504,46.5359,26.434,46.6222Q26.3175,46.7085,26.1953,46.7863Q26.0731,46.8642,25.9456,46.9331Q25.8182,47.0021,25.6862,47.0619Q25.5542,47.1217,25.4183,47.1719Q25.2824,47.2222,25.1433,47.2628Q25.0042,47.3033,24.8625,47.3339Q24.7209,47.3644,24.5774,47.3849Q24.434,47.4054,24.2894,47.4156Q24.1449,47.4259,24,47.4259Q23.8551,47.4259,23.7106,47.4156Q23.566,47.4054,23.4226,47.3849Q23.2791,47.3644,23.1375,47.3339Q22.9958,47.3033,22.8567,47.2628Q22.7176,47.2222,22.5817,47.1719Q22.4458,47.1217,22.3138,47.0619Q22.1818,47.0021,22.0544,46.9331Q21.9269,46.8642,21.8047,46.7863Q21.6825,46.7085,21.566,46.6222Q21.4496,46.5359,21.3396,46.4416Q21.2296,46.3473,21.1266,46.2454Q21.0235,46.1436,20.9279,46.0346Q20.8323,45.9257,20.7447,45.8103Q20.6571,45.6949,20.5779,45.5736Q20.4986,45.4523,20.4282,45.3257Q20.3577,45.199,20.2964,45.0677L20.2964,45.0677Q20.2521,44.9728,20.203,44.8803Q20.1539,44.7878,20.1001,44.6979Q20.0463,44.6081,19.988,44.5211Q19.9297,44.4341,19.867,44.3502Q19.8043,44.2663,19.7374,44.1857Q19.6704,44.1051,19.5995,44.0281Q19.5285,43.951,19.4537,43.8777Q19.3789,43.8044,19.3005,43.735Q19.222,43.6656,19.1401,43.6004Q19.0582,43.5351,18.973,43.4741Q18.8879,43.4131,18.7997,43.3565Q18.7116,43.3,18.6206,43.248Q18.5297,43.1961,18.4362,43.1488Q18.3427,43.1016,18.2469,43.0592Q18.1512,43.0168,18.0533,42.9794Q17.9555,42.942,17.8559,42.9096Q17.7563,42.8772,17.6552,42.85Q17.554,42.8228,17.4516,42.8008Q17.3492,42.7788,17.2458,42.762Q17.1424,42.7453,17.0383,42.7339Q16.9342,42.7225,16.8296,42.7164Q16.7251,42.7104,16.6203,42.7096Q16.5156,42.7089,16.411,42.7136Q16.3063,42.7183,16.2021,42.7283Q16.0978,42.7383,15.9942,42.7536Q15.8906,42.769,15.7879,42.7896Q15.685199999999998,42.8102,15.5837,42.8361Q15.482199999999999,42.8619,15.382200000000001,42.893Q15.2821,42.924,15.183800000000002,42.9601Q15.0855,42.9962,14.9892,43.0373Q14.892800000000001,43.0784,14.7987,43.1244Q14.7046,43.1703,14.613,43.2211L14.613,43.2211Q14.4862,43.2912,14.354800000000001,43.3523Q14.223299999999998,43.4133,14.087900000000001,43.4649Q13.9525,43.5165,13.8138,43.5583Q13.6751,43.6002,13.5337,43.6321Q13.392399999999999,43.664,13.249099999999999,43.6859Q13.105899999999998,43.7077,12.961400000000001,43.7194Q12.817,43.731,12.6721,43.7324Q12.5272,43.7338,12.3826,43.7249Q12.2379,43.716,12.0943,43.6969Q11.950700000000001,43.6778,11.808700000000002,43.6486Q11.666799999999999,43.6194,11.5273,43.5802Q11.387799999999999,43.541,11.2514,43.492Q11.115100000000002,43.443,10.9825,43.3845Q10.8499,43.326,10.7218,43.2582Q10.5938,43.1904,10.4708,43.1138Q10.3478,43.0371,10.2306,42.952Q10.1134,42.8668,10.0025,42.7735Q9.8916,42.6803,9.7875,42.5794Q9.6835,42.4785,9.5869,42.3705Q9.4903,42.2625,9.4016,42.1479Q9.3128,42.0334,9.2324,41.9128Q9.152,41.7923,9.0804,41.6663Q9.0087,41.5404,8.9462,41.4097Q8.8836,41.279,8.8305,41.1441Q8.7774,41.0093,8.7339,40.8711Q8.6904,40.7329,8.6569,40.5919Q8.6233,40.4509,8.5998,40.308Q8.5763,40.165,8.563,40.0207Q8.5497,39.8764,8.5466,39.7315Q8.5436,39.5866,8.5508,39.4419Q8.558,39.2972,8.5754,39.1533Q8.5929,39.0095,8.6204,38.8672L8.6204,38.8672Q8.6404,38.7644,8.655,38.6607Q8.6697,38.557,8.679,38.4527Q8.6883,38.3483,8.6922,38.2437Q8.6962,38.139,8.6948,38.0343Q8.6934,37.9296,8.6866,37.825Q8.6798,37.7205,8.6677,37.6165Q8.6556,37.5124,8.6382,37.4092Q8.6207,37.3059,8.5981,37.2036Q8.5754,37.1014,8.5475,37.0004Q8.5196,36.8995,8.4865,36.8001Q8.4535,36.7007,8.4154,36.6031Q8.3773,36.5055,8.3343,36.4101Q8.2913,36.3146,8.2434,36.2214Q8.1955,36.1282,8.143,36.0377Q8.0904,35.9471,8.0332,35.8593Q7.976100000000001,35.7715,7.9145,35.6868Q7.853,35.602,7.787100000000001,35.5206Q7.721299999999999,35.4391,7.651400000000001,35.3611Q7.5815,35.2831,7.5077,35.2088Q7.4338999999999995,35.1345,7.356400000000001,35.0641Q7.2788,34.9936,7.197800000000001,34.9273Q7.1168,34.8609,7.032500000000001,34.7988Q6.9481,34.7366,6.860799999999999,34.6789Q6.7734000000000005,34.6212,6.6831,34.568Q6.5929,34.5148,6.5001,34.4663Q6.4072,34.4178,6.311999999999999,34.3741Q6.216799999999999,34.3305,6.1195,34.2917Q6.0222,34.253,5.923,34.2193Q5.8239,34.1856,5.7231000000000005,34.157Q5.622299999999999,34.1284,5.520200000000001,34.105Q5.418100000000001,34.0817,5.3149999999999995,34.0635Q5.2118,34.0454,5.107900000000001,34.0326L5.107900000000001,34.0326Q4.96406,34.0149,4.821859999999999,33.987Q4.67966,33.9591,4.53979,33.9213Q4.39992,33.8834,4.26309,33.8357Q4.126250000000001,33.788,3.9931300000000007,33.7308Q3.8600200000000005,33.6735,3.7312899999999996,33.607Q3.6025600000000004,33.5405,3.4788700000000006,33.465Q3.3551800000000007,33.3895,3.23714,33.3055Q3.1190999999999995,33.2214,3.0073100000000004,33.1292Q2.8955200000000003,33.037,2.79054,32.9371Q2.6855599999999997,32.8373,2.5879200000000004,32.7302Q2.4902800000000003,32.6231,2.40046,32.5094Q2.3106400000000002,32.3957,2.2291,32.2759Q2.14757,32.1561,2.07472,32.0309Q2.0018599999999998,31.9056,1.9380699999999997,31.7755Q1.87427,31.645400000000002,1.8198400000000001,31.5111Q1.7654199999999998,31.376800000000003,1.7206400000000004,31.238999999999997Q1.6758699999999997,31.1012,1.6409599999999998,30.9606Q1.6060499999999998,30.819899999999997,1.5811900000000003,30.6772Q1.55633,30.534399999999998,1.5416400000000001,30.3902Q1.5269599999999999,30.2461,1.5225099999999996,30.101300000000002Q1.5180699999999998,29.956400000000002,1.5239000000000003,29.8116Q1.5297200000000002,29.666800000000002,1.5457799999999997,29.522799999999997Q1.5618499999999997,29.3788,1.58807,29.2363Q1.6142899999999996,29.0938,1.6505400000000003,28.9535Q1.6867799999999997,28.813200000000002,1.7328700000000001,28.675800000000002Q1.7789599999999997,28.538400000000003,1.83467,28.4047Q1.8903699999999999,28.270899999999997,1.9554099999999996,28.141399999999997Q2.02044,28.011899999999997,2.0944900000000004,27.8874Q2.1685299999999996,27.7628,2.2512100000000004,27.6438Q2.3338900000000002,27.5248,2.42478,27.411900000000003Q2.5156799999999997,27.299100000000003,2.6143400000000003,27.192999999999998Q2.713,27.086799999999997,2.81893,26.988L2.81893,26.988Q2.8955,26.9165,2.9683,26.8412Q3.0411099999999998,26.7659,3.109959999999999,26.687Q3.17882,26.6081,3.2435399999999994,26.5257Q3.3082600000000006,26.4433,3.3686799999999995,26.3578Q3.4290900000000004,26.2722,3.4850499999999993,26.1837Q3.54101,26.0952,3.5923599999999993,26.0039Q3.6437100000000004,25.9126,3.69031,25.8188Q3.7369199999999996,25.725,3.7786600000000004,25.6289Q3.8203999999999994,25.5329,3.85717,25.4348Q3.8939299999999992,25.3367,3.92563,25.2369Q3.9573199999999993,25.1371,3.9838699999999996,25.0357Q4.01041,24.9344,4.03172,24.8319Q4.053039999999999,24.7293,4.06908,24.6258Q4.08511,24.5223,4.095829999999999,24.4181Q4.106540000000001,24.3139,4.11191,24.2093Q4.1172699999999995,24.1047,4.1172699999999995,24Q4.1172699999999995,23.8953,4.11191,23.7907Q4.106540000000001,23.6861,4.095829999999999,23.5819Q4.08511,23.4777,4.06908,23.3742Q4.053039999999999,23.2707,4.03172,23.1681Q4.01041,23.0656,3.98386,22.9643Q3.9573199999999993,22.8629,3.92563,22.7631Q3.8939299999999992,22.6633,3.85717,22.5652Q3.8203999999999994,22.4671,3.7786600000000004,22.3711Q3.7369199999999996,22.275,3.69031,22.1812Q3.6437100000000004,22.0874,3.5923599999999993,21.9961Q3.54101,21.9048,3.4850499999999993,21.8163Q3.4290900000000004,21.7278,3.3686799999999995,21.6422Q3.3082600000000006,21.5566,3.2435399999999994,21.4743Q3.17882,21.3919,3.109959999999999,21.313Q3.0411099999999998,21.2341,2.9683,21.1588Q2.8955,21.0835,2.81893,21.012L2.81893,21.012Q2.713,20.9132,2.6143400000000003,20.807Q2.5156799999999997,20.7009,2.42478,20.5881Q2.3338900000000002,20.4752,2.2512100000000004,20.3562Q2.1685299999999996,20.2372,2.0944900000000004,20.1126Q2.02044,19.9881,1.9554099999999996,19.8586Q1.8903699999999999,19.7291,1.83467,19.5953Q1.7789599999999997,19.4616,1.7328700000000001,19.3242Q1.6867799999999997,19.1868,1.6505299999999998,19.0465Q1.6142899999999996,18.9062,1.58807,18.7637Q1.5618499999999997,18.6212,1.5457799999999997,18.4772Q1.5297200000000002,18.3332,1.5238899999999997,18.1884Q1.5180699999999998,18.0436,1.5225099999999996,17.8987Q1.5269599999999999,17.7539,1.5416400000000001,17.6098Q1.55633,17.4656,1.5811900000000003,17.3228Q1.6060499999999998,17.1801,1.6409599999999998,17.0394Q1.6758600000000001,16.8988,1.7206400000000004,16.761Q1.7654199999999998,16.6232,1.8198400000000001,16.4889Q1.87427,16.3546,1.9380699999999997,16.2245Q2.0018599999999998,16.0944,2.07472,15.969100000000001Q2.14757,15.843900000000001,2.2291,15.7241Q2.3106400000000002,15.604299999999999,2.40046,15.4906Q2.4902800000000003,15.3769,2.5879200000000004,15.2698Q2.6855599999999997,15.162700000000001,2.79054,15.062899999999999Q2.8955200000000003,14.963000000000001,3.0073100000000004,14.8708Q3.1190999999999995,14.7786,3.23714,14.694500000000001Q3.3551800000000007,14.610499999999998,3.4788700000000006,14.535Q3.6025600000000004,14.459499999999998,3.7312899999999996,14.393Q3.8600200000000005,14.3265,3.9931300000000007,14.269200000000001Q4.126250000000001,14.212,4.26309,14.1643Q4.39992,14.116599999999998,4.53979,14.078700000000001Q4.67966,14.0409,4.821859999999999,14.013000000000002Q4.96406,13.9851,5.107900000000001,13.967400000000001L5.107900000000001,13.967400000000001Q5.2118,13.9546,5.3149999999999995,13.936499999999999Q5.418100000000001,13.918299999999999,5.520200000000001,13.895Q5.622299999999999,13.8716,5.7231000000000005,13.843Q5.8239,13.8144,5.923,13.7807Q6.0222,13.747,6.1195,13.708300000000001Q6.216799999999999,13.6695,6.311999999999999,13.625900000000001Q6.4072,13.5822,6.5001,13.5337Q6.5929,13.485199999999999,6.6831,13.431999999999999Q6.7734000000000005,13.378799999999998,6.860799999999999,13.321100000000001Q6.9481,13.2634,7.032500000000001,13.2012Q7.1168,13.1391,7.197800000000001,13.072700000000001Q7.2788,13.0064,7.356400000000001,12.9359Q7.4338999999999995,12.8655,7.5077,12.7912Q7.5815,12.716899999999999,7.651400000000001,12.6389Q7.721299999999999,12.5609,7.787100000000001,12.479399999999998Q7.853,12.398,7.9145,12.313199999999998Q7.976100000000001,12.2285,8.0332,12.140699999999999Q8.0904,12.052900000000001,8.143,11.962299999999999Q8.1955,11.8718,8.2434,11.7786Q8.2913,11.685400000000001,8.3343,11.5899Q8.3773,11.494399999999999,8.4154,11.396899999999999Q8.4535,11.299299999999999,8.4865,11.1999Q8.5196,11.1005,8.5475,10.9996Q8.5754,10.8986,8.5981,10.7964Q8.6207,10.6941,8.6382,10.5908Q8.6556,10.4876,8.6677,10.3835Q8.6798,10.2795,8.6866,10.175Q8.6934,10.0704,8.6948,9.9657Q8.6962,9.861,8.6922,9.7563Q8.6883,9.6517,8.679,9.5473Q8.6697,9.443,8.655,9.3393Q8.6404,9.2356,8.6204,9.1328L8.6204,9.1328Q8.5929,8.9905,8.5754,8.8467Q8.558,8.7028,8.5508,8.5581Q8.5436,8.4134,8.5466,8.2685Q8.5497,8.1236,8.563,7.9793Q8.5763,7.835000000000001,8.5998,7.692Q8.6233,7.549099999999999,8.6569,7.408099999999999Q8.6904,7.267099999999999,8.7339,7.1289Q8.7774,6.9907,8.8305,6.8559Q8.8836,6.721,8.9462,6.590299999999999Q9.0087,6.4596,9.0804,6.3337Q9.152,6.207700000000001,9.2324,6.087199999999999Q9.3128,5.9666,9.4016,5.852Q9.4903,5.737500000000001,9.5869,5.6295Q9.6835,5.5215,9.7875,5.4206Q9.8916,5.319699999999999,10.0025,5.2265Q10.1134,5.1332,10.2306,5.048Q10.3478,4.962870000000001,10.4708,4.88622Q10.5938,4.809559999999999,10.7219,4.7418Q10.8499,4.67404,10.9825,4.61553Q11.115100000000002,4.55701,11.2514,4.50803Q11.387799999999999,4.4590499999999995,11.5273,4.41985Q11.666799999999999,4.38064,11.808700000000002,4.351419999999999Q11.950700000000001,4.322190000000001,12.0943,4.303089999999999Q12.2379,4.283989999999999,12.3826,4.27511Q12.5272,4.26623,12.6721,4.2676099999999995Q12.817,4.2689900000000005,12.961400000000001,4.28063Q13.105899999999998,4.29227,13.249099999999999,4.3141099999999994Q13.392399999999999,4.33595,13.5337,4.3678799999999995Q13.6751,4.39981,13.8138,4.44167Q13.9525,4.48352,14.087900000000001,4.5351Q14.223299999999998,4.586679999999999,14.354800000000001,4.64771Q14.4862,4.70875,14.613,4.77894L14.613,4.77894Q14.7046,4.82967,14.7987,4.875640000000001Q14.892800000000001,4.921620000000001,14.9892,4.9627099999999995Q15.0855,5.0038,15.183800000000002,5.039899999999999Q15.2821,5.0760000000000005,15.382200000000001,5.106999999999999Q15.482199999999999,5.1381,15.5837,5.1639Q15.685199999999998,5.1898,15.7879,5.2104Q15.8906,5.231,15.9942,5.2463999999999995Q16.0978,5.261699999999999,16.2021,5.271699999999999Q16.3063,5.281700000000001,16.411,5.2864Q16.5156,5.2911,16.6203,5.2904Q16.7251,5.2897,16.8296,5.2836Q16.9342,5.2775,17.0383,5.2661Q17.1424,5.2547,17.2458,5.2379999999999995Q17.3492,5.2212,17.4516,5.199199999999999Q17.554,5.177199999999999,17.6551,5.15Q17.7563,5.1228,17.8559,5.090400000000001Q17.9555,5.058,18.0533,5.0206Q18.1512,4.983180000000001,18.2469,4.940799999999999Q18.3427,4.89841,18.4362,4.85117Q18.5297,4.803940000000001,18.6206,4.75197Q18.7116,4.700010000000001,18.7997,4.643459999999999Q18.8879,4.58691,18.973,4.525919999999999Q19.0582,4.464919999999999,19.1401,4.399649999999999Q19.222,4.3343799999999995,19.3005,4.265000000000001Q19.3789,4.19561,19.4537,4.122299999999999Q19.5285,4.04899,19.5995,3.97194Q19.6704,3.8949,19.7374,3.8143200000000004Q19.8043,3.733739999999999,19.867,3.6498399999999993Q19.9297,3.5659399999999994,19.988,3.4789399999999997Q20.0463,3.39194,20.1001,3.3020700000000005Q20.1539,3.2121999999999993,20.203,3.1196900000000003Q20.2521,3.0271799999999995,20.2964,2.93227L20.2964,2.93227Q20.3577,2.8009700000000004,20.4282,2.6743499999999996Q20.4986,2.54772,20.5778,2.4264Q20.6571,2.3050800000000002,20.7447,2.1896699999999996Q20.8323,2.0742700000000003,20.9279,1.9653600000000004Q21.0235,1.8564499999999997,21.1266,1.7545799999999998Q21.2296,1.65271,21.3396,1.5583999999999998Q21.4496,1.46408,21.566,1.37779Q21.6825,1.2915099999999997,21.8047,1.21368Q21.9269,1.1358499999999996,22.0544,1.0668800000000003Q22.1818,0.9978999999999996,22.3138,0.9381199999999996Q22.4458,0.8783399999999997,22.5817,0.8280599999999998Q22.7176,0.7777799999999999,22.8567,0.7372500000000004Q22.9958,0.69672,23.1375,0.6661400000000004Q23.2791,0.6355599999999999,23.4226,0.6150900000000004Q23.566,0.5946199999999999,23.7106,0.5843600000000002Q23.8551,0.5740999999999996,24,0.5740999999999996Q24.1449,0.5740999999999996,24.2894,0.5843600000000002Q24.434,0.5946199999999999,24.5774,0.6150900000000004Q24.7209,0.6355599999999999,24.8625,0.6661400000000004Q25.0042,0.69672,25.1433,0.7372500000000004Q25.2824,0.7777799999999999,25.4183,0.8280599999999998Q25.5542,0.8783399999999997,25.6862,0.9381199999999996Q25.8182,0.9978999999999996,25.9456,1.0668800000000003Q26.0731,1.1358499999999996,26.1953,1.21368Q26.3175,1.2915099999999997,26.434,1.3777999999999997Q26.5504,1.46408,26.6604,1.5583999999999998Q26.7704,1.65271,26.8734,1.7545799999999998Q26.9765,1.8564499999999997,27.0721,1.9653600000000004Q27.167700000000004,2.0742700000000003,27.2553,2.1896699999999996Q27.3429,2.3050800000000002,27.4221,2.4264Q27.501399999999997,2.54772,27.571800000000003,2.6743499999999996Q27.6423,2.8009700000000004,27.7036,2.93227L27.7036,2.93227Z" fill="#6F879F" fill-opacity="1"/></g><g><path d="M33.997709375,20.846913106689453Q34.117309375000005,20.722353106689454,34.211109375,20.577306106689452Q34.304909375,20.432260106689455,34.369409375000004,20.272024106689454Q34.433909375,20.11178710668945,34.466709375,19.942210106689455Q34.499609375,19.772633106689455,34.499609375,19.599903106689453Q34.499609375,19.511474806689453,34.490909375,19.423472106689452Q34.482309375,19.335470106689453,34.465009375,19.248741106689454Q34.447809375,19.16201110668945,34.422109375000005,19.077391106689454Q34.396409375000005,18.992770106689452,34.362609375000005,18.911073106689454Q34.328709375,18.829376106689452,34.287109375,18.75138910668945Q34.245409375,18.67340210668945,34.196209374999995,18.599873106689454Q34.147109375,18.526353106689452,34.091009375,18.457993106689454Q34.034909375,18.389643106689455,33.972409375,18.327113106689453Q33.909909375,18.264583106689454,33.841509375,18.208483106689453Q33.773109375000004,18.152383106689452,33.699609375,18.103253106689454Q33.626109375,18.054133106689452,33.548109374999996,18.012443106689453Q33.470109375,17.970763106689454,33.388409374999995,17.936923106689452Q33.306709375,17.903083106689454,33.222109375,17.877413106689453Q33.137509375,17.851743106689455,33.050809375,17.834493106689454Q32.964009375,17.817233106689454,32.876009374999995,17.808573106689455Q32.788009375,17.799903106689452,32.699609375,17.799903106689452Q32.517809375,17.799903106689452,32.339609374999995,17.836273106689454Q32.161409375000005,17.872643106689452,31.994109375,17.943913106689454Q31.826809375,18.015183106689452,31.677209375,18.118463106689454Q31.527509375,18.22175310668945,31.401509375,18.352893106689454L31.400709374999998,18.353753106689453L22.275179375,27.85285310668945L16.848989375,22.624123106689453L16.848599375,22.623743106689453Q16.723969375,22.503653106689452,16.578739375,22.409503106689453Q16.433510375,22.315353106689454,16.273002375,22.250613106689453Q16.112494375,22.185863106689453,15.942589375,22.15288310668945Q15.772685375,22.119903106689453,15.599609375,22.119903106689453Q15.511181075,22.119903106689453,15.423178374999999,22.12857310668945Q15.335176375,22.137233106689454,15.248447375,22.154493106689454Q15.161717375,22.171743106689455,15.077097375,22.197413106689453Q14.992476375,22.223083106689455,14.910779375,22.256923106689452Q14.829082375,22.290763106689454,14.751095375,22.332443106689453Q14.673108375,22.374133106689452,14.599579375,22.423253106689454Q14.526059374999999,22.472383106689453,14.457699375,22.528483106689453Q14.389349375,22.584583106689454,14.326819375,22.647113106689453Q14.264289375,22.70964310668945,14.208189375,22.777993106689454Q14.152089375,22.846353106689453,14.102959375,22.919873106689455Q14.053839374999999,22.993403106689453,14.012149375,23.071393106689452Q13.970469375,23.149373106689453,13.936629375,23.231073106689454Q13.902789375,23.312773106689452,13.877119375,23.397393106689453Q13.851449375,23.482013106689454,13.834199375,23.568743106689453Q13.816939375,23.655473106689453,13.808279375,23.743473106689454Q13.799609375,23.83147310668945,13.799609375,23.919903106689453Q13.799609375,24.101403106689453,13.835839374999999,24.279243106689453Q13.872069375,24.457083106689453,13.943079375,24.624113106689453Q14.014089375,24.791143106689454,14.117009375,24.940633106689454Q14.219929375,25.090123106689454,14.350619375,25.216063106689454L14.351239375,25.216653106689453L20.426269375,31.070603106689454Q21.232469375,31.84750310668945,22.351839375,31.825903106689452Q23.471219375,31.804303106689453,24.246849375,30.99690310668945L33.997709375,20.846913106689453L33.997709375,20.846913106689453Z" fill-rule="evenodd" fill="#FFFFFF" fill-opacity="1"/></g></g></g></svg>