<svg xmlns="http://www.w3.org/2000/svg" xmlns:xlink="http://www.w3.org/1999/xlink" version="1.1" width="24" height="24" viewBox="0 0 24 24"><g><g><ellipse cx="12" cy="12" rx="12" ry="12" fill-opacity="1"/></g><g><path d="M7.690471430511474,11.776641907348633C7.290981430511475,11.395311907348633,6.657983430511474,11.410031907348632,6.276644430511475,11.809521907348632C5.895309430511475,12.209021907348632,5.910029930511475,12.842021907348633,6.309524430511475,13.223361907348632C6.309524430511475,13.223361907348632,7.690471430511474,11.776641907348633,7.690471430511474,11.776641907348633C7.690471430511474,11.776641907348633,7.690471430511474,11.776641907348633,7.690471430511474,11.776641907348633ZM10.666671430511474,16.000001907348633C10.666671430511474,16.000001907348633,9.976191430511474,16.723361907348632,9.976191430511474,16.723361907348632C10.362611430511475,17.092211907348634,10.970721430511475,17.092211907348634,11.357141430511476,16.723361907348632C11.357141430511476,16.723361907348632,10.666671430511474,16.000001907348633,10.666671430511474,16.000001907348633C10.666671430511474,16.000001907348633,10.666671430511474,16.000001907348633,10.666671430511474,16.000001907348633ZM18.690501430511475,9.723351907348633C19.090001430511474,9.342011907348633,19.104701430511476,8.709021907348633,18.723401430511473,8.309524907348633C18.342001430511473,7.910030407348633,17.709001430511474,7.895309907348633,17.309501430511474,8.276644907348633C17.309501430511474,8.276644907348633,18.690501430511475,9.723351907348633,18.690501430511475,9.723351907348633C18.690501430511475,9.723351907348633,18.690501430511475,9.723351907348633,18.690501430511475,9.723351907348633ZM6.309524430511475,13.223361907348632C6.309524430511475,13.223361907348632,9.976191430511474,16.723361907348632,9.976191430511474,16.723361907348632C9.976191430511474,16.723361907348632,11.357141430511476,15.276641907348633,11.357141430511476,15.276641907348633C11.357141430511476,15.276641907348633,7.690471430511474,11.776641907348633,7.690471430511474,11.776641907348633C7.690471430511474,11.776641907348633,6.309524430511475,13.223361907348632,6.309524430511475,13.223361907348632C6.309524430511475,13.223361907348632,6.309524430511475,13.223361907348632,6.309524430511475,13.223361907348632ZM11.357141430511476,16.723361907348632C11.357141430511476,16.723361907348632,18.690501430511475,9.723351907348633,18.690501430511475,9.723351907348633C18.690501430511475,9.723351907348633,17.309501430511474,8.276644907348633,17.309501430511474,8.276644907348633C17.309501430511474,8.276644907348633,9.976191430511474,15.276641907348633,9.976191430511474,15.276641907348633C9.976191430511474,15.276641907348633,11.357141430511476,16.723361907348632,11.357141430511476,16.723361907348632C11.357141430511476,16.723361907348632,11.357141430511476,16.723361907348632,11.357141430511476,16.723361907348632Z" fill="#131523" fill-opacity="1"/></g></g></svg>