<svg xmlns="http://www.w3.org/2000/svg" xmlns:xlink="http://www.w3.org/1999/xlink" fill="none" version="1.1" width="36" height="36" viewBox="0 0 36 36"><defs><filter id="master_svg0_2125_29054" filterUnits="objectBoundingBox" color-interpolation-filters="sRGB" x="0" y="0" width="20" height="22"><feFlood flood-opacity="0" result="BackgroundImageFix"/><feBlend mode="normal" in="SourceGraphic" in2="BackgroundImageFix" result="shape"/><feGaussianBlur in="BackgroundImage" stdDeviation="5"/><feComposite in2="SourceAlpha" operator="in" result="effect1_foregroundBlur"/><feBlend mode="normal" in="SourceGraphic" in2="effect1_foregroundBlur" result="shape"/></filter><linearGradient x1="0.8505859375" y1="0.2238750457763672" x2="0.08457031100988388" y2="1" id="master_svg1_2125_29046"><stop offset="5.714286118745804%" stop-color="#FFFFFF" stop-opacity="1"/><stop offset="41.50588810443878%" stop-color="#FFFFFF" stop-opacity="0.5100903511047363"/><stop offset="97.14285135269165%" stop-color="#636060" stop-opacity="0.33000001311302185"/></linearGradient></defs><g><g></g><g><path d="M11,32C11,34.2091,12.79086,36,15,36L32,36C34.2091,36,36,34.2091,36,32L36,4.0761C36,2.05349,34.0393,0.610454,32.1082,1.21173L13.8109,6.90861C12.13897,7.42916,11,8.97669,11,10.7278L11,32Z" fill="#44444F" fill-opacity="0.800000011920929"/></g><g style="opacity:0.800000011920929;" filter="url(#master_svg0_2125_29054)"><path d="M0,24.824199999999998L0,33C0,34.6569,1.34315,36,3,36L17,36C18.6569,36,20,34.6569,20,33L20,18.45845C20,16.32873,17.8428,14.877193,15.87,15.67942L2.49327,21.11883C0.985835,21.7318,0,23.1969,0,24.824199999999998Z" fill="url(#master_svg1_2125_29046)" fill-opacity="1"/></g></g></svg>