<svg xmlns="http://www.w3.org/2000/svg" xmlns:xlink="http://www.w3.org/1999/xlink" fill="none" version="1.1" width="36" height="36" viewBox="0 0 36 36"><defs><linearGradient x1="0.8985351324081421" y1="0.12321887165307999" x2="0.08457031100988388" y2="1" id="master_svg0_2125_29470"><stop offset="5.714278295636177%" stop-color="#FFFFFF" stop-opacity="1"/><stop offset="97.14287519454956%" stop-color="#FFFFFF" stop-opacity="0.33000001311302185"/></linearGradient></defs><g><g></g><g><path d="M11,32C11,34.2091,12.79086,36,15,36L32,36C34.2091,36,36,34.2091,36,32L36,4.0761C36,2.05349,34.0393,0.610454,32.1082,1.21173L13.8109,6.90861C12.13897,7.42916,11,8.97669,11,10.7278L11,32Z" fill="#FFFFFF" fill-opacity="0.800000011920929"/></g><g><path d="M0,24.824199999999998L0,33C0,34.6569,1.34315,36,3,36L17,36C18.6569,36,20,34.6569,20,33L20,18.45845C20,16.32873,17.8428,14.877193,15.87,15.67942L2.49327,21.11883C0.985835,21.7318,0,23.1969,0,24.824199999999998Z" fill="url(#master_svg0_2125_29470)" fill-opacity="1"/></g></g></svg>