<svg xmlns="http://www.w3.org/2000/svg" xmlns:xlink="http://www.w3.org/1999/xlink" fill="none" version="1.1" width="16" height="16" viewBox="0 0 16 16"><g><g></g><g><path d="M2,13.5L2,2.5C2,1.39543,2.89543,0.5,4,0.5L12,0.5C13.1046,0.5,14,1.39543,14,2.5L14,13.5C14,14.6046,13.1046,15.5,12,15.5L4,15.5C2.89543,15.5,2,14.6046,2,13.5ZM3,13.5Q3,13.9142,3.29289,14.2071Q3.5857900000000003,14.5,4,14.5L12,14.5Q12.4142,14.5,12.7071,14.2071Q13,13.9142,13,13.5L13,2.5Q13,2.0857900000000003,12.7071,1.79289Q12.4142,1.5,12,1.5L4,1.5Q3.5857900000000003,1.5,3.29289,1.79289Q3,2.0857900000000003,3,2.5L3,13.5Z" fill-rule="evenodd" fill="#171725" fill-opacity="1"/></g><g><path d="M9.09990234375,11.6Q9.09990234375,11.65404,9.094602343750001,11.70782Q9.08931234375,11.7616,9.07876234375,11.8146Q9.06822234375,11.8676,9.05253234375,11.91931Q9.03685234375,11.97103,9.01617234375,12.02095Q8.99549234375,12.07088,8.97001234375,12.11854Q8.94454234375,12.1662,8.91452234375,12.21113Q8.88449234375,12.25606,8.85021234375,12.29783Q8.81593234375,12.33961,8.77772234375,12.37782Q8.73951234375,12.41603,8.69773234375,12.45031Q8.65596234375,12.48459,8.61103234375,12.51462Q8.56610234375,12.54464,8.51844234375,12.57011Q8.47078234375,12.59559,8.42085234375,12.61627Q8.37093234375,12.63695,8.31921234375,12.65263Q8.26750234375,12.66832,8.21450234375,12.67886Q8.16150234375,12.68941,8.10772234375,12.694700000000001Q8.05394234375,12.7,7.99990234375,12.7Q7.94586234375,12.7,7.89208334375,12.694700000000001Q7.83830434375,12.68941,7.78530334375,12.67886Q7.73230134375,12.66832,7.68058934375,12.65263Q7.62887634375,12.63695,7.57895034375,12.61627Q7.52902434375,12.59559,7.48136634375,12.57011Q7.43370734375,12.54464,7.38877534375,12.51462Q7.34384334375,12.48459,7.30206934375,12.45031Q7.26029634375,12.41603,7.22208534375,12.37782Q7.18387334375,12.33961,7.14959134375,12.29783Q7.11530834375,12.25606,7.08528534375,12.21113Q7.05526334375,12.1662,7.02978934375,12.11854Q7.00431534375,12.07088,6.98363484375,12.02095Q6.96295484375,11.97103,6.94726794375,11.91931Q6.93158114375,11.8676,6.92103854375,11.8146Q6.91049594375,11.7616,6.90519914375,11.70782Q6.89990234375,11.65404,6.89990234375,11.6Q6.89990234375,11.545960000000001,6.90519914375,11.492181Q6.91049594375,11.438402,6.92103854375,11.385401Q6.93158114375,11.332399,6.94726794375,11.280687Q6.96295484375,11.228974000000001,6.98363484375,11.179048Q7.00431534375,11.129122,7.02978934375,11.081464Q7.05526334375,11.033805,7.08528534375,10.988873Q7.11530834375,10.943941,7.14959134375,10.902167Q7.18387334375,10.860394,7.22208534375,10.822183Q7.26029634375,10.783971,7.30206934375,10.749689Q7.34384334375,10.715406,7.38877534375,10.685383Q7.43370734375,10.655361,7.48136634375,10.629887Q7.52902434375,10.604413,7.57895034375,10.5837325Q7.62887634375,10.5630525,7.68058934375,10.5473656Q7.73230134375,10.5316788,7.78530334375,10.5211362Q7.83830434375,10.5105936,7.89208334375,10.5052968Q7.94586234375,10.5,7.99990234375,10.5Q8.05394234375,10.5,8.10772234375,10.5052968Q8.16150234375,10.5105936,8.21450234375,10.5211362Q8.26750234375,10.5316788,8.31921234375,10.5473656Q8.37093234375,10.5630525,8.42085234375,10.5837325Q8.47078234375,10.604413,8.51844234375,10.629887Q8.56610234375,10.655361,8.61103234375,10.685383Q8.65596234375,10.715406,8.69773234375,10.749689Q8.73951234375,10.783971,8.77772234375,10.822183Q8.81593234375,10.860394,8.85021234375,10.902167Q8.88449234375,10.943941,8.91452234375,10.988873Q8.94454234375,11.033805,8.97001234375,11.081464Q8.99549234375,11.129122,9.01617234375,11.179048Q9.03685234375,11.228974000000001,9.05253234375,11.280687Q9.06822234375,11.332399,9.07876234375,11.385401Q9.08931234375,11.438402,9.094602343750001,11.492181Q9.09990234375,11.545960000000001,9.09990234375,11.6Z" fill="#171725" fill-opacity="1"/></g></g></svg>