<svg xmlns="http://www.w3.org/2000/svg" xmlns:xlink="http://www.w3.org/1999/xlink" fill="none" version="1.1" width="18.749998092651367" height="20" viewBox="0 0 18.749998092651367 20"><defs><clipPath id="master_svg0_2313_94067"><rect x="0" y="0" width="18.749998092651367" height="20" rx="0"/></clipPath></defs><g clip-path="url(#master_svg0_2313_94067)"><g><path d="M5.89856,18.1256C12.9723,18.1256,16.8424,11.87286,16.8424,6.45216C16.8424,6.27638,16.8387,6.09669,16.8314,5.92091C17.5843,5.34016,18.234,4.62082,18.75,3.79669C18.0488,4.129440000000001,17.3044,4.34676,16.5421,4.4412199999999995C17.3448,3.92803,17.9457,3.1218399999999997,18.2336,2.1720829999999998C17.4786,2.649408,16.6528,2.98612,15.7917,3.16779C15.2116,2.510244,14.4445,2.074874,13.6091,1.9289862C12.7737,1.7830984,11.9166,1.934819,11.1701,2.360691C10.4237,2.786562,9.8295,3.46286,9.47953,4.28504C9.12961,5.10721,9.0433,6.02946,9.23401,6.90919C7.70507,6.82735,6.20932,6.4037,4.84373,5.66569C3.47814,4.92769,2.27319,3.89181,1.30701,2.6252079999999998C0.815937,3.5283100000000003,0.665669,4.59698,0.886743,5.61402C1.10782,6.63106,1.68365,7.52015,2.49719,8.1006C1.88643,8.07991,1.28904,7.90451,0.754395,7.58888C0.754395,7.58888,0.754395,7.63966,0.754395,7.63966C0.753847,8.587399999999999,1.06102,9.5061,1.62367,10.23958C2.18634,10.97307,2.96978,11.47608,3.84082,11.6631C3.27504,11.82822,2.68124,11.85227,2.10534,11.73341C2.35114,12.5485,2.82936,13.2614,3.47326,13.7726C4.11716,14.2838,4.89462,14.5678,5.69714,14.585C4.33471,15.7265,2.6517,16.3457,0.919189,16.3428C0.611943,16.3423,0.305,16.322200000000002,0,16.282600000000002C1.76004,17.487099999999998,3.80745,18.1268,5.89856,18.1256C5.89856,18.1256,5.89856,18.1256,5.89856,18.1256Z" fill="#FFFFFF" fill-opacity="1"/></g></g></svg>