<svg xmlns="http://www.w3.org/2000/svg" xmlns:xlink="http://www.w3.org/1999/xlink" version="1.1" width="33" height="35" viewBox="0 0 33 35"><g><g><path d="M31.1476,11.7831C30.3053,10.809,29.1272,10.3219,27.444,9.99678C27.9491,7.88659,28.2863,3.99011,26.4338,1.55481C24.9186,-0.231484,22.7303,-0.0683187,21.0458,0.0936288C12.7964,0.742636,6.90331,2.20382,3.36768,3.3411C1.34733,3.82816,0,5.61445,0,7.72464L0,22.4984C0,23.1474,0.505089,23.7976,1.34733,23.7976C2.18956,23.7976,2.69465,23.3106,2.69465,22.4984L2.69465,9.34777C6.39822,10.1599,13.1336,11.296,21.5509,11.945L21.8969,11.9706C26.0626,12.2787,28.4807,12.4576,29.4644,13.4062C30.4746,14.5423,30.4746,16.6537,30.4746,20.874L30.4746,24.1215C30.4746,28.667,30.4746,30.6152,29.2964,31.7525C28.1183,32.7266,26.4338,32.7266,21.888,32.2396C19.5305,32.0776,17.3422,31.7525,15.1539,31.4274C14.4809,31.2655,13.8066,31.7525,13.6387,32.4015C13.4707,33.0505,13.9758,33.7008,14.6488,33.8627C16.8371,34.1878,19.1947,34.5117,21.5522,34.6749L22.4752,34.7577C23.9185,34.888,25.1497,35,26.2659,35C28.2863,35,29.8015,34.6749,30.9796,33.5388C33,31.7525,33,28.9933,33,24.1227L33,20.8753C33,16.0047,33,13.5694,31.1476,11.7831ZM2.86259,6.91247C3.03053,6.26346,3.53562,5.7764,4.04071,5.61324C7.57634,4.63912,13.3003,3.17794,21.2137,2.52893C22.897,2.36698,23.7392,2.36698,24.4122,3.17794C25.4224,4.47717,25.4224,7.23636,24.9173,9.67166C24.3706,9.58399,23.8238,9.54381,23.2227,9.49876C22.7139,9.46101,22.1671,9.42083,21.5496,9.34655C13.6361,8.85949,6.5649,7.72342,2.86133,6.91125L2.86259,6.91247ZM27.9491,22.3364C27.9491,20.3882,26.2659,18.7651,24.2455,18.7651C22.2252,18.7651,20.542,20.3882,20.542,22.3364C20.542,24.2847,22.2252,25.9078,24.2455,25.9078C26.2659,25.9078,27.9491,24.2847,27.9491,22.3364ZM22.8982,22.3364C22.8982,21.6874,23.4033,21.0372,24.2455,21.0372C25.0878,21.0372,25.5929,21.5243,25.5929,22.3364C25.5929,23.1486,25.0878,23.6357,24.2455,23.6357C23.4033,23.6357,22.8982,22.9867,22.8982,22.3364ZM14.3117,21.2004C14.9847,21.0384,15.827,21.3623,15.9949,22.0125C16.1629,22.4996,15.827,23.3118,14.9847,23.3118C11.4491,24.611,6.90331,30.4557,5.55598,32.5659C5.38804,32.891,5.05089,33.053,4.5458,33.053C4.20866,33.053,3.70357,32.7279,3.53562,32.404Q2.3575,29.9687,1.17812,29.8067C0.505089,29.8067,0,29.3197,0,28.6707C0,28.0216,0.673031,27.5346,1.34733,27.5346C1.68447,27.5346,3.19974,27.6965,4.71501,29.8079C6.73536,27.2107,10.6081,22.502,14.3117,21.2028L14.3117,21.2004Z" fill-opacity="1"/></g></g></svg>