<svg xmlns="http://www.w3.org/2000/svg" xmlns:xlink="http://www.w3.org/1999/xlink" fill="none" version="1.1" width="36.171875" height="36" viewBox="0 0 36.171875 36"><defs><filter id="master_svg0_2125_65806" filterUnits="objectBoundingBox" color-interpolation-filters="sRGB" x="0" y="0" width="28" height="20"><feFlood flood-opacity="0" result="BackgroundImageFix"/><feBlend mode="normal" in="SourceGraphic" in2="BackgroundImageFix" result="shape"/><feGaussianBlur in="BackgroundImage" stdDeviation="5"/><feComposite in2="SourceAlpha" operator="in" result="effect1_foregroundBlur"/><feBlend mode="normal" in="SourceGraphic" in2="effect1_foregroundBlur" result="shape"/></filter><linearGradient x1="0.8505859375" y1="0.2238750457763672" x2="0.08457031100988388" y2="1" id="master_svg1_2125_29046"><stop offset="5.714286118745804%" stop-color="#FFFFFF" stop-opacity="1"/><stop offset="41.50588810443878%" stop-color="#FFFFFF" stop-opacity="0.5100903511047363"/><stop offset="97.14285135269165%" stop-color="#636060" stop-opacity="0.33000001311302185"/></linearGradient></defs><g><g></g><g transform="matrix(0.970597505569458,-0.24070830643177032,0.24070830643177032,0.970597505569458,-1.9202216047415277,0.7231545040849596)"><path d="M2,25.2216796875C2,27.4307796875,3.79086,29.2216796875,6,29.2216796875L28,29.2216796875C30.2091,29.2216796875,32,27.4307796875,32,25.2216796875L32,11.2216796875C32,9.5648296875,30.6569,8.2216796875,29,8.2216796875L6,8.2216796875C3.79086,8.2216796875,2,10.0125396875,2,12.2216796875L2,25.2216796875Z" fill="#44444F" fill-opacity="0.800000011920929"/></g><g style="opacity:0.800000011920929;" filter="url(#master_svg0_2125_65806)"><path d="M2,15L2,28C2,29.6569,3.34315,31,5,31L27,31C28.6569,31,30,29.6569,30,28L30,14C30,12.34315,28.6569,11,27,11L6,11C3.79086,11,2,12.79086,2,15Z" fill="url(#master_svg1_2125_29046)" fill-opacity="1"/></g></g></svg>