<svg xmlns="http://www.w3.org/2000/svg" xmlns:xlink="http://www.w3.org/1999/xlink" fill="none" version="1.1" width="20" height="20" viewBox="0 0 20 20"><defs><clipPath id="master_svg0_2313_94077"><rect x="0" y="0" width="20" height="20" rx="0"/></clipPath></defs><g clip-path="url(#master_svg0_2313_94077)"><g><path d="M13.5375,6.7803125C13.7675,6.7803125,13.9937,6.7978125,14.2212,6.8228125C13.6087,3.9703125,10.56,1.8515625,7.07875,1.8515625C3.1875,1.851562690735,0,4.5028125,0,7.8715625C0,9.815312500000001,1.06,11.4115625,2.8325,12.6515625L2.125,14.7803625L4.6,13.5403625C5.485,13.7140625,6.195,13.8940625,7.07875,13.8940625C7.30125,13.8940625,7.52125,13.8840625,7.73875,13.8678625C7.60125,13.3940625,7.52,12.8990625,7.52,12.3828625C7.52125,9.290312499999999,10.1762,6.7803125,13.5375,6.7803125ZM9.7325,4.8615625C10.2675,4.8615625,10.6187,5.2128125,10.6187,5.7453125C10.6187,6.2753125,10.2675,6.6303125,9.7325,6.6303125C9.20375,6.6303125,8.67125,6.2753125,8.67125,5.7453125C8.67125,5.211562499999999,9.2025,4.8615625,9.7325,4.8615625ZM4.77875,6.6303125C4.2475,6.6303125,3.7125,6.2753125,3.7125,5.7453125C3.7125,5.2128125,4.2475,4.8615625,4.77875,4.8615625C5.31,4.8615625,5.6625,5.211562499999999,5.6625,5.7453125C5.6625,6.2753125,5.31,6.6303125,4.77875,6.6303125ZM20,12.2978625C20,9.4678125,17.1675,7.1615625,13.9862,7.1615625C10.6175,7.1615625,7.96625,9.4690625,7.96625,12.2978625C7.96625,15.1352625,10.6188,17.4340625,13.9862,17.4340625C14.6912,17.4340625,15.4025,17.2578625,16.11,17.0803625L18.0513,18.1453625L17.5188,16.375262499999998C18.94,15.3078625,20,13.8940625,20,12.2978625ZM12.0337,11.4115625C11.6825,11.4115625,11.3263,11.0615625,11.3263,10.7040625C11.3263,10.3515625,11.6825,9.9965625,12.0337,9.9965625C12.5712,9.9965625,12.92,10.3515625,12.92,10.7040625C12.92,11.0615625,12.5712,11.4115625,12.0337,11.4115625ZM15.9275,11.4115625C15.5787,11.4115625,15.2237,11.0615625,15.2237,10.7040625C15.2237,10.3515625,15.5775,9.9965625,15.9275,9.9965625C16.46,9.9965625,16.8137,10.3515625,16.8137,10.7040625C16.8137,11.0615625,16.46,11.4115625,15.9275,11.4115625Z" fill="#FFFFFF" fill-opacity="1"/></g></g></svg>