<svg xmlns="http://www.w3.org/2000/svg" xmlns:xlink="http://www.w3.org/1999/xlink" fill="none" version="1.1" width="49" height="20" viewBox="0 0 49 20"><defs><clipPath id="master_svg0_2313_94072"><rect x="0" y="0" width="49" height="20" rx="0"/></clipPath></defs><g clip-path="url(#master_svg0_2313_94072)"><g><path d="M48.687650000000005,4.31203Q48.39895,2.35202,47.524950000000004,1.48961C46.418350000000004,0.360643,45.16755,0.352803,44.59825,0.290082Q40.516850000000005,0,34.39075,0L34.37475,0Q28.24869,0,24.1593,0.290082C23.58999,0.352803,22.34714,0.360643,21.23258,1.49745Q20.358574,2.35986,20.069912,4.31987Q19.78125,6.61701,19.78125,8.92199L19.78125,11.078Q19.78125,13.3751,20.069912,15.6801Q20.358574,17.6401,21.23258,18.5026C22.33912,19.6315,23.798470000000002,19.6002,24.447960000000002,19.7178Q26.78132,19.9373,34.37475,20Q40.508849999999995,19.9922,44.59015,19.7021C45.159549999999996,19.6394,46.40235,19.6315,47.51695,18.4947Q48.390950000000004,17.6323,48.67955,15.6723Q48.96825,13.3751,48.96825,11.0702L48.96825,8.91415Q48.97625,6.60917,48.687650000000005,4.31203Z" fill="#FFFFFF" fill-opacity="1"/></g><g><path d="M18.282,16.17423125L16.4217,16.17423125L16.4217,15.12373125C15.7161,15.91553125,15.1227,16.30753125,14.4732,16.30753125C13.9039,16.30753125,13.503,16.04103125,13.3106,15.57063125C13.1903,15.28053125,13.1021,14.82583125,13.1021,14.16723125L13.1021,6.5153212499999995L14.9623,6.5153212499999995L14.9623,14.34753125C15.0024,14.61413125,15.1227,14.71603125,15.3552,14.71603125C15.7081,14.71603125,16.0288,14.41023125,16.4217,13.86933125L16.4217,6.5153212499999995L18.282,6.5153212499999995L18.282,16.17423125ZM11.7309,9.67486125C11.7309,8.63997125,11.5224,7.87165125,11.1456,7.37772125C10.6484,6.71916125,9.87868,6.44476125,9.09287,6.44476125C8.21085,6.44476125,7.5373,6.71132125,7.04016,7.37772125C6.6633,7.86381125,6.45482,8.64781125,6.45482,9.682701250000001L6.45482,13.11665125C6.45482,14.14373125,6.63924,14.84933125,7.0161,15.33543125C7.51325,15.99393125,8.31509,16.33893125,9.09287,16.33893125C9.87066,16.33893125,10.6885,15.99393125,11.1857,15.33543125C11.5625,14.84933125,11.7309,14.14373125,11.7309,13.11665125L11.7309,9.67486125ZM9.87066,13.30483125C9.96688,14.26133125,9.66218,14.73173125,9.08485,14.73173125C8.50753,14.73173125,8.20283,14.26133125,8.29905,13.30483125L8.29905,9.47886125C8.20283,8.522371249999999,8.50753,8.075491249999999,9.08485,8.075491249999999C9.66218,8.075491249999999,9.96688,8.522371249999999,9.87066,9.47886125L9.87066,13.30483125ZM4.4021,10.91359125L4.4021,16.17423125L2.44561,16.17423125L2.44561,10.91359125Q0.416957,4.46906125,0,3.26953163147L2.05271,3.26953163147L3.42386,8.30285125L4.78699,3.26953125L6.8397,3.26953125L4.4021,10.91359125Z" fill="#FFFFFF" fill-opacity="1"/></g><g><path d="M46.531040625,11.68159125L46.531040625,9.72941125C46.531040625,8.71020125,46.322540625,7.96540125,45.953740624999995,7.47931125C45.456540625,6.828591250000001,44.750940625,6.483621250000001,43.868940625,6.483621250000001C42.962840625,6.483621250000001,42.257240625,6.828591250000001,41.752040625,7.47931125C41.375240625,7.96540125,41.158740625,8.74940125,41.158740625,9.76861125L41.158740625,13.11632125C41.158740625,14.12768125,41.399240625,14.84118125,41.776140625,15.31938125C42.289340625,15.97008125,42.994940625,16.29938125,43.917040625,16.29938125C44.839140625,16.29938125,45.568840625,15.95438125,46.057940625,15.26448125C46.274440625,14.95878125,46.410740625,14.61378125,46.474940625,14.22958125C46.490940625,14.05708125,46.539040625,13.66508125,46.539040625,13.10064125L46.539040625,12.82624125L44.678840625,12.82624125C44.678840625,13.52398125,44.678840625,13.93168125,44.662740625,14.02578125C44.558540625,14.48838125,44.309940624999996,14.72358125,43.868940625,14.72358125C43.259540625,14.72358125,43.002940625,14.27668125,43.010940625,13.39858125L43.010940625,11.68159125L46.531040625,11.68159125ZM43.010940625,9.18845125C43.010940625,8.29468125,43.259540625,8.05164125,43.852940625,8.05164125C44.438240625,8.05164125,44.670740625,8.318201250000001,44.670740625,9.20413125L44.670740625,10.24686125L43.010940625,10.24686125L43.010940625,9.18845125ZM38.328240625,6.460111250000001C37.678730625,6.460111250000001,37.029240625,6.85211125,36.459930625,7.54203125L36.459930625,3.36328125L34.703900625,3.36328125L34.703900625,16.17398125L36.459930625,16.17398125L36.459930625,15.20958125C37.053290625,15.92308125,37.694770625000004,16.29158125,38.328240625,16.29158125C39.033840624999996,16.29158125,39.547040625,15.92308125,39.787540625,15.20958125C39.907840625,14.80198125,39.980040625,14.18258125,39.980040625,13.29664125L39.980040625,9.47069125C39.980040625,8.56908125,39.859740625,7.94972125,39.739440625,7.56555125C39.506940625,6.85995125,39.033840624999996,6.460111250000001,38.328240625,6.460111250000001ZM38.127740625,13.39858125C38.127740625,14.35508125,37.895220625,14.72358125,37.390060625000004,14.72358125C37.101400625,14.72358125,36.764630625,14.57458125,36.467950625,14.28448125L36.467950625,8.49068125C36.764630625,8.20844125,37.101400625,8.05164125,37.390060625000004,8.05164125C37.903240625,8.05164125,38.127740625,8.333881250000001,38.127740625,9.29037125L38.127740625,13.39858125ZM33.236530625,16.17398125L31.376260625,16.17398125L31.376260625,15.12338125C30.670640625,15.91518125,30.077280625,16.30718125,29.427790625,16.30718125C28.858483625,16.30718125,28.457562625,16.04068125,28.265119625,15.57028125C28.144845125,15.28018125,28.056640625,14.82548125,28.056640625,14.16688125L28.056640625,6.616911249999999L29.916910625,6.616911249999999L29.916910625,14.35508125C29.957000625,14.62158125,30.077280625,14.72358125,30.309810625,14.72358125C30.662620625,14.72358125,30.983360625,14.41778125,31.376260625,13.87678125L31.376260625,6.616911249999999L33.236530625,6.616911249999999L33.236530625,16.17398125Z" fill="#171725" fill-opacity="1"/></g><g><path d="M26.1967,16.17398125L24.24021,16.17398125L24.24021,5.18217125L22.1875,5.18217125L22.1875,3.36328125L28.34563,3.36328125L28.34563,5.18217125L26.1967,5.18217125L26.1967,16.17398125Z" fill="#171725" fill-opacity="1"/></g></g></svg>